<svg width="30" height="35" viewBox="0 0 30 35" fill="none" xmlns="http://www.w3.org/2000/svg">
<path fill-rule="evenodd" clip-rule="evenodd" d="M29.7696 9.49639L29.7686 9.46916C29.7533 9.13297 29.7432 8.77729 29.7371 8.38155C29.7085 6.45174 28.1744 4.85544 26.2443 4.74756C22.2202 4.52299 19.1072 3.21082 16.4473 0.618237L16.4246 0.596608C15.5571 -0.198869 14.2483 -0.198869 13.3805 0.596608L13.3578 0.618237C10.6979 3.21082 7.58493 4.52299 3.56081 4.74783C1.631 4.85544 0.0966518 6.45174 0.0680798 8.38182C0.0622051 8.77488 0.051791 9.13057 0.0365704 9.46916L0.0349683 9.53244C-0.043271 13.6359 -0.140469 18.7428 1.56798 23.3781C2.50738 25.9272 3.93011 28.143 5.79637 29.9644C7.92192 32.0387 10.706 33.6854 14.071 34.8587C14.1805 34.8969 14.2943 34.9279 14.4102 34.9511C14.5736 34.9837 14.7381 35 14.9026 35C15.0671 35 15.2318 34.9837 15.395 34.9511C15.5109 34.9279 15.6254 34.8967 15.7354 34.8582C19.0965 33.6828 21.8776 32.0352 24.0013 29.9612C25.8668 28.1392 27.2895 25.9229 28.2297 23.3733C29.9445 18.7241 29.8476 13.6076 29.7696 9.49639ZM26.3028 22.6628C24.5009 27.5483 20.8226 30.9035 15.0577 32.9196C15.0372 32.9265 15.0153 32.9327 14.9926 32.9372C14.933 32.949 14.8724 32.949 14.812 32.9369C14.7896 32.9324 14.7677 32.9265 14.7474 32.9196C8.97641 30.9073 5.29569 27.5539 3.49512 22.6681C1.92045 18.3954 2.00964 13.7074 2.08842 9.5717L2.08895 9.54873C2.10497 9.19332 2.11565 8.82108 2.12153 8.41199C2.13434 7.5551 2.81687 6.84614 3.67536 6.79834C5.95258 6.67124 7.95316 6.23117 9.79138 5.45305C11.6272 4.676 13.2577 3.58065 14.7755 2.10452C14.8526 2.03936 14.9528 2.03909 15.0297 2.10452C16.5477 3.58065 18.1782 4.676 20.0138 5.45305C21.852 6.23117 23.8526 6.67124 26.13 6.79834C26.9885 6.84614 27.6711 7.5551 27.6836 8.41226C27.6898 8.82348 27.7004 9.19572 27.7165 9.54873C27.795 13.6893 27.882 18.381 26.3028 22.6628ZM14.902 8.77811C10.0923 8.77811 6.17954 12.6911 6.17954 17.5006C6.17954 22.3103 10.0923 26.2233 14.902 26.2233C19.7115 26.2233 23.6245 22.3103 23.6245 17.5006C23.6245 12.6911 19.7115 8.77811 14.902 8.77811ZM14.902 24.1694C11.2248 24.1694 8.23325 21.1778 8.23325 17.5006C8.23325 13.8233 11.2248 10.8318 14.902 10.8318C18.579 10.8318 21.5705 13.8233 21.5705 17.5006C21.5705 21.1778 18.579 24.1694 14.902 24.1694ZM13.3576 18.844L17.4089 14.7927C17.81 14.3913 18.4602 14.3913 18.8613 14.7927C19.2621 15.1935 19.2621 15.8437 18.8613 16.2448L14.0836 21.0224C13.8831 21.223 13.6203 21.3231 13.3576 21.3231C13.0948 21.3231 12.832 21.223 12.6315 21.0224L10.8056 19.1965C10.4048 18.7957 10.4048 18.1455 10.8056 17.7444C11.2066 17.3433 11.8569 17.3433 12.2579 17.7444L13.3576 18.844Z" fill="#009961"/>
</svg>
