<svg width="36" height="35" viewBox="0 0 36 35" fill="none" xmlns="http://www.w3.org/2000/svg">
<path d="M35.9487 34.0751L34.9227 30.182C34.0865 27.0127 31.4442 24.6375 28.1625 24.1315C25.1056 23.8083 24.5013 23.745 24.4451 23.745C23.4894 23.745 22.7164 22.9721 22.7164 22.0163V20.892C24.4099 19.613 25.5062 17.6243 25.6889 15.4459L25.9068 12.4663C26.5392 12.3117 27.1717 12.1501 27.7901 11.9533C28.4084 11.7636 28.8231 11.2155 28.8441 10.5619C28.8582 9.90138 28.4717 9.33218 27.8603 9.10731L25.4851 8.23593L23.7916 3.0428C23.1802 1.22274 21.4936 0 19.5822 0H16.3778C14.4664 0 12.7799 1.22274 12.1825 3.0428L10.489 8.23593L8.11377 9.10731C7.49538 9.33218 7.10888 9.90138 7.12996 10.5619C7.14402 11.2155 7.55862 11.7636 8.17702 11.9533C8.80244 12.1431 9.4349 12.3117 10.0814 12.4663C10.1446 13.2604 10.2149 14.2372 10.2852 15.4529C10.4679 17.6313 11.5712 19.6271 13.2718 20.899V22.0163C13.2718 22.9721 12.4988 23.745 11.5431 23.745C11.4869 23.745 7.83971 24.1315 7.79052 24.1386C4.54394 24.6445 1.90169 27.0197 1.06545 30.182L0.0254199 34.0751C-0.0799887 34.4686 0.15191 34.8692 0.545436 34.9746C0.938961 35.08 1.33951 34.8481 1.44492 34.4546L2.47793 30.5685C3.15957 27.9965 5.2818 26.0711 7.86079 25.6213V28.5657C6.68022 28.889 5.6964 29.7674 5.27477 30.955L4.18555 34.0118C4.05203 34.3913 4.24879 34.813 4.62826 34.9465C5.00773 35.08 5.42937 34.8832 5.56289 34.5038L6.65211 31.4399C6.98239 30.5123 7.86079 29.8939 8.84461 29.8939H27.1295C28.1133 29.8939 28.9917 30.5123 29.322 31.4399L30.4112 34.5038C30.5447 34.8832 30.9664 35.087 31.3458 34.9465C31.7253 34.813 31.9291 34.3913 31.7886 34.0118L30.6993 30.948C30.2777 29.7604 29.2939 28.882 28.1133 28.5587V25.6143C30.7134 26.0781 32.8145 28.0036 33.4891 30.5544L34.5221 34.4405C34.6276 34.834 35.0281 35.0659 35.4216 34.9605C35.8222 34.8692 36.0541 34.4616 35.9487 34.0751ZM13.581 3.49957C13.9745 2.28385 15.0989 1.46869 16.3778 1.46869H19.5822C20.8612 1.46869 21.9855 2.28385 22.3791 3.49957L23.8759 8.0743H12.0912L13.581 3.49957ZM8.51433 10.5198L11.2058 9.53597H24.7543L27.4176 10.5198C26.6024 10.7517 17.9941 13.3026 8.51433 10.5198ZM11.7469 15.3334L11.5571 12.7896C15.7102 13.5837 20.1163 13.6118 24.4029 12.7896L24.2132 15.3264C24.0516 17.2378 23.0186 18.9806 21.4445 19.9784C19.2449 21.3769 20.2568 21.1309 17.8676 21.5315C16.4621 21.5315 15.8297 20.8217 14.5156 19.9855C12.9415 18.9806 11.9085 17.2449 11.7469 15.3334ZM14.7334 21.8969C15.6891 22.5715 16.6308 23.0002 17.8676 23.0002C18.1838 22.951 19.2871 23.2742 21.2336 21.8899C21.2407 21.925 21.0861 23.6959 22.7515 24.7289C19.5541 26.6684 16.4129 26.6684 13.2156 24.7289C14.881 23.7029 14.7264 21.932 14.7334 21.8969ZM26.6516 28.4322H9.32949V25.4527L11.3393 25.2419C13.5458 26.8511 15.7664 27.6663 17.987 27.6663C20.2077 27.6663 22.4283 26.8511 24.6348 25.2419L26.6516 25.4527V28.4322Z" fill="#009961"/>
</svg>
