<svg width="30" height="35" viewBox="0 0 30 35" fill="none" xmlns="http://www.w3.org/2000/svg">
<path d="M28.7114 14.4501C28.0588 14.3359 27.2192 14.6463 26.8205 15.8597L25.4824 19.9347C25.142 19.9661 24.7785 20.1056 24.4297 20.3961C24.034 20.7249 23.6368 21.0428 23.2519 21.3504C20.7391 23.3595 18.3652 25.2572 18.2985 29.0246V29.0335V30.3146C18.2985 30.3214 18.2992 30.3282 18.3 30.3351C18.3 30.3419 18.2985 30.3487 18.2985 30.3556V31.1964H18.1006C17.5877 31.1964 17.1705 31.5683 17.1705 32.0256V34.1708C17.1705 34.6281 17.5877 35 18.1006 35H24.5362C25.0492 35 25.4663 34.6281 25.4663 34.1708V32.0256C25.4663 31.5683 25.0492 31.1964 24.5362 31.1964H24.3614L24.3683 30.7234C24.3744 30.4185 24.4971 30.1669 24.7425 29.9557L27.1165 27.9267C28.2559 26.9512 28.89 25.7952 29.0534 24.3911L29.9881 16.2562C30.09 15.3853 29.528 14.593 28.7114 14.4501ZM24.2418 33.9062H18.3974V32.2881H24.2418V33.9062ZM28.7704 16.1434L27.8357 24.2776C27.703 25.4131 27.1908 26.3483 26.2692 27.1371L23.8944 29.1675C23.4152 29.5797 23.1553 30.1115 23.1438 30.7063L23.1369 31.1957H19.5253V30.3549C19.5253 30.3481 19.5245 30.3412 19.5238 30.3344C19.5238 30.3275 19.5253 30.3207 19.5253 30.3139V29.0376C19.5851 25.7501 21.565 24.1676 24.0708 22.1639C24.4596 21.8529 24.8621 21.5316 25.2662 21.1952C25.4004 21.0831 25.5752 20.9936 25.7071 21.0319C25.7094 21.0325 25.7117 21.0339 25.7148 21.0346C25.7823 21.0571 25.8129 21.1153 25.8275 21.1611C25.8635 21.2732 25.8367 21.414 25.7585 21.5589C25.7286 21.6013 25.6918 21.6444 25.6481 21.6881L22.3923 24.8853C22.1646 25.1089 22.1837 25.4541 22.4337 25.6571C22.6845 25.8602 23.0717 25.8431 23.2994 25.6202L26.4041 22.5713C26.4724 22.5365 26.5345 22.49 26.5858 22.4312C26.6771 22.3259 26.7553 22.2172 26.8212 22.1065C27.2859 21.4256 27.1149 20.7085 26.6449 20.2956C26.6441 20.2949 26.6426 20.2942 26.6418 20.2929L27.996 16.1666C28.1501 15.6977 28.3717 15.5042 28.4744 15.5227C28.601 15.5445 28.8126 15.777 28.7704 16.1434ZM11.9004 31.1957H11.7026V29.0335C11.7026 29.0307 11.7026 29.028 11.7026 29.0246C11.6359 25.2579 9.26422 23.3609 6.75301 21.3518C6.36808 21.0435 5.97012 20.7256 5.5737 20.3954C5.22404 20.1049 4.85982 19.9661 4.51937 19.9347L3.18133 15.8597C2.78261 14.647 1.94375 14.3366 1.29045 14.4501C0.473058 14.593 -0.088227 15.3853 0.0114548 16.2548L0.948464 24.3897C1.10949 25.7939 1.74362 26.9505 2.88536 27.9254L5.25548 29.9536C5.50239 30.1662 5.62507 30.4178 5.63121 30.7206L5.63811 31.1957H5.46328C4.9503 31.1957 4.53317 31.5676 4.53317 32.0249V34.1701C4.53317 34.6274 4.9503 34.9993 5.46328 34.9993H11.8989C12.4119 34.9993 12.829 34.6274 12.829 34.1701V32.0249C12.8313 31.5676 12.4134 31.1957 11.9004 31.1957ZM6.85806 30.7035C6.84656 30.1102 6.58738 29.579 6.10661 29.1654L3.73495 27.1365C2.81175 26.3476 2.29953 25.4131 2.16918 24.2776L1.23217 16.1427C1.19 15.7763 1.40163 15.5439 1.52738 15.522C1.63013 15.5035 1.85173 15.697 2.00586 16.1659L3.36 20.2922C3.35923 20.2929 3.35769 20.2942 3.35616 20.2949C2.85392 20.7359 2.69366 21.5241 3.28485 22.2446C3.28792 22.2487 3.29098 22.2528 3.29482 22.2562C3.31322 22.2781 3.33162 22.2993 3.35079 22.3211C3.35693 22.328 3.36383 22.3355 3.36996 22.343C3.3945 22.3697 3.4198 22.3957 3.44588 22.4216L6.70163 25.6189C6.92937 25.8424 7.31659 25.8588 7.56733 25.6558C7.81807 25.4527 7.83647 25.1075 7.60874 24.884L4.35298 21.6874C4.35068 21.6854 4.34838 21.6826 4.34684 21.6806C4.33074 21.6649 4.31617 21.6492 4.30237 21.6327C4.29394 21.6232 4.2855 21.6136 4.27783 21.604C4.2717 21.5965 4.26557 21.589 4.2602 21.5815C4.16205 21.4523 4.12601 21.3299 4.13751 21.2322C4.13905 21.2212 4.14058 21.211 4.14288 21.2C4.14365 21.1959 4.14441 21.1925 4.14595 21.1884C4.15132 21.1706 4.15745 21.1535 4.16588 21.1385C4.16588 21.1385 4.16588 21.1385 4.16588 21.1378C4.19272 21.0879 4.23566 21.0503 4.28627 21.0332C4.2878 21.0325 4.28857 21.0325 4.2901 21.0319C4.42352 20.9902 4.60142 21.0804 4.73714 21.1939C5.142 21.5302 5.54456 21.8529 5.93408 22.1639C8.4384 24.1669 10.4167 25.7494 10.4765 29.0362V31.1944H6.86496L6.85806 30.7035ZM11.6052 33.9062H5.76079V32.2881H11.6052V33.9062ZM20.1755 33.1276C20.1755 33.4298 19.901 33.6738 19.5629 33.6738H19.5023C19.1634 33.6738 18.8896 33.4291 18.8896 33.1276C18.8896 32.8261 19.1642 32.5814 19.5023 32.5814H19.5629C19.901 32.5814 20.1755 32.8254 20.1755 33.1276ZM11.1137 33.1276C11.1137 33.4298 10.8392 33.6738 10.501 33.6738H10.4405C10.1015 33.6738 9.82781 33.4291 9.82781 33.1276C9.82781 32.8261 10.1023 32.5814 10.4405 32.5814H10.501C10.8392 32.5814 11.1137 32.8254 11.1137 33.1276ZM17.8928 19.7556C17.9864 20.0598 18.2739 20.2765 18.6259 20.3072C18.6542 20.31 18.6826 20.3106 18.711 20.3106C19.03 20.3106 19.3198 20.1527 19.4647 19.8936L20.2614 18.4724L21.7505 19.3481C22.0473 19.5225 22.4245 19.5142 22.7121 19.3283C22.9988 19.1424 23.1238 18.8252 23.031 18.5237L21.3756 13.0118L22.0503 12.8723C22.4337 12.7937 22.7542 12.5852 22.9536 12.2851C23.153 11.985 23.2036 11.6336 23.0955 11.2952L22.7082 10.0818C22.6868 10.0148 22.7044 9.95879 22.7634 9.90957L23.7326 9.10154C24.0164 8.86502 24.1804 8.53142 24.1835 8.18551C24.1866 7.84166 24.0302 7.50737 23.7534 7.26948L22.7404 6.39378C22.6814 6.34251 22.6653 6.28645 22.6891 6.21672L23.0763 5.08467C23.1905 4.7497 23.1476 4.39833 22.9567 4.09549C22.765 3.79197 22.4498 3.57663 22.0649 3.48913L20.6954 3.18356C20.6187 3.16647 20.5727 3.12408 20.5551 3.05504L20.2553 1.90248C20.1679 1.56478 19.9263 1.27014 19.5928 1.09514C19.26 0.920135 18.8551 0.875017 18.4848 0.970038L17.1268 1.31321C17.0478 1.33303 16.9873 1.31868 16.9305 1.26467L16.0265 0.401277C15.7642 0.150394 15.3931 0.00410164 15.0082 0C15.0028 0 14.9975 0 14.9921 0C14.6102 0 14.2399 0.139456 13.973 0.383504L12.9847 1.2886C12.9302 1.33919 12.8681 1.35286 12.7922 1.33235L11.5224 0.987129C11.1451 0.884588 10.7495 0.923553 10.4083 1.09514C10.0678 1.26672 9.82781 1.54837 9.73273 1.88744L9.38691 3.10836C9.36697 3.17809 9.32173 3.21842 9.24275 3.23483L7.94996 3.50212C7.56657 3.58073 7.24605 3.78923 7.04745 4.08934C6.84809 4.38944 6.79748 4.74081 6.90483 5.0792L7.29206 6.2926C7.31353 6.3596 7.29589 6.41565 7.23685 6.46487L6.26764 7.2729C5.98393 7.50942 5.81983 7.84302 5.81677 8.18825C5.8137 8.5321 5.97012 8.86638 6.24693 9.10428L7.25985 9.97998C7.31889 10.0313 7.335 10.0873 7.31123 10.157L6.924 11.2891C6.80975 11.6234 6.85269 11.9741 7.04362 12.2769C7.23532 12.5811 7.55046 12.7964 7.93539 12.8846L8.62012 13.0378L6.97154 18.5196C6.87799 18.8245 7.00298 19.1417 7.28976 19.3276C7.5773 19.5136 7.95532 19.5218 8.25207 19.3474L9.74039 18.4724L10.5371 19.8936C10.682 20.1527 10.9718 20.3106 11.2908 20.3106C11.3192 20.3106 11.3476 20.3093 11.3759 20.3072C11.7279 20.2765 12.0154 20.0598 12.1105 19.7521L13.4079 15.4317L13.9753 15.9732C14.2376 16.2247 14.6095 16.3717 14.9952 16.3758H15.0113C15.3931 16.3758 15.7635 16.2364 16.0303 15.9923L16.6046 15.4659L17.8928 19.7556ZM20.5827 17.3527C20.3818 17.2331 20.1334 17.1961 19.9003 17.2501C19.6664 17.3048 19.4693 17.4463 19.3574 17.6418L18.8168 18.6057L17.7947 15.2021L18.4771 15.3873C18.8536 15.4912 19.2485 15.4536 19.5897 15.282C19.9271 15.1132 20.1748 14.8227 20.2691 14.487L20.4056 14.0051L21.5887 17.9433L20.5827 17.3527ZM11.1858 18.6064L10.6437 17.6391C10.534 17.447 10.337 17.3055 10.1031 17.2508C9.86998 17.1968 9.62154 17.2337 9.42295 17.3513L8.41463 17.944L9.61311 13.9593L9.74576 14.4733C9.83394 14.8151 10.0686 15.1016 10.406 15.2793C10.7433 15.457 11.1375 15.5028 11.517 15.4065L12.1987 15.2335L11.1858 18.6064ZM15.1523 15.2308C15.101 15.2779 15.0404 15.2841 15.0097 15.2841C14.9722 15.2834 14.9185 15.2738 14.8725 15.2294L13.9684 14.3674C13.7438 14.1507 13.4578 14.018 13.1495 13.9763C13.1472 13.9757 13.1441 13.9757 13.1418 13.975C13.0759 13.9661 13.0092 13.9606 12.9409 13.9606C12.8091 13.9606 12.6741 13.977 12.5399 14.0112L11.1827 14.3557C11.1152 14.3728 11.0623 14.3557 11.0301 14.3393C10.9979 14.3223 10.9557 14.2894 10.9404 14.2286L10.6414 13.0713C10.5156 12.6023 10.1292 12.2516 9.60544 12.1333L8.2375 11.8278C8.16466 11.8107 8.12785 11.7683 8.11252 11.7437C8.09411 11.715 8.07724 11.6678 8.09718 11.609L8.48364 10.4783C8.64236 10.0176 8.50587 9.53974 8.11558 9.1993L7.09959 8.32087C7.05205 8.27985 7.04209 8.232 7.04285 8.1985C7.04285 8.17047 7.05129 8.11647 7.10496 8.07203L8.07418 7.26469C8.47137 6.93451 8.62012 6.4594 8.47137 5.99455L8.08491 4.78252C8.06574 4.72236 8.08414 4.67519 8.10331 4.64716C8.12172 4.61913 8.15852 4.58222 8.22753 4.56855L9.51956 4.30126C10.0486 4.19256 10.4435 3.84734 10.5762 3.37702L10.922 2.15541C10.9389 2.09526 10.981 2.06381 11.0125 2.0474C11.0455 2.031 11.0984 2.01527 11.1658 2.03373L12.4372 2.37895C12.9578 2.51909 13.493 2.39468 13.8665 2.04877L14.851 1.14573C14.9024 1.09856 14.966 1.09309 14.9936 1.0924C15.0312 1.09309 15.0849 1.10266 15.1301 1.14573L15.1316 1.14709L16.038 2.01117C16.4083 2.3646 16.9412 2.49722 17.4634 2.36596L18.8245 2.02211C18.8912 2.00502 18.9426 2.02143 18.9748 2.03783C19.007 2.05492 19.0484 2.08774 19.0645 2.14926L19.3643 3.30182C19.4862 3.77283 19.8727 4.1242 20.3994 4.24315L21.7674 4.54872C21.8372 4.56444 21.8732 4.60273 21.8916 4.63144C21.91 4.66015 21.9269 4.70732 21.9069 4.76679L21.5205 5.89748C21.3618 6.35823 21.4982 6.83607 21.8885 7.17651L22.9045 8.05494C22.9521 8.09596 22.962 8.14381 22.9613 8.17731C22.9613 8.20534 22.9528 8.25934 22.8992 8.30378L21.9299 9.11112C21.5327 9.4413 21.384 9.9164 21.5327 10.3813L21.9192 11.594C21.9384 11.6541 21.92 11.7006 21.9008 11.7293C21.8824 11.7574 21.8456 11.7943 21.7766 11.8079L20.4846 12.0752C20.48 12.0759 20.4746 12.078 20.47 12.0787C20.4677 12.0793 20.4654 12.0793 20.4639 12.08C20.4616 12.0807 20.46 12.0814 20.4577 12.0814C19.9424 12.1962 19.5583 12.5374 19.4279 12.9988L19.0821 14.2204C19.0652 14.2812 19.0223 14.3134 18.9901 14.3298C18.9579 14.3455 18.9065 14.3612 18.8383 14.3421L17.5669 13.9969C17.0455 13.8567 16.5103 13.9811 16.1377 14.327L15.1523 15.2308ZM19.9754 8.18825C19.9754 5.7423 17.7448 3.75232 15.0021 3.75232C12.2585 3.75232 10.0264 5.7423 10.0264 8.18825C10.0264 10.6342 12.2585 12.6235 15.0021 12.6235C17.7448 12.6235 19.9754 10.6342 19.9754 8.18825ZM15.0021 11.5311C12.9348 11.5311 11.2525 10.0312 11.2525 8.18825C11.2525 6.34524 12.9348 4.84541 15.0021 4.84541C17.0685 4.84541 18.7493 6.34524 18.7493 8.18825C18.7493 10.0312 17.0685 11.5311 15.0021 11.5311ZM17.8069 7.38091L15.1316 9.76806C15.0166 9.8706 14.861 9.92803 14.6984 9.92803C14.5359 9.92803 14.3802 9.8706 14.2652 9.76806L12.1956 7.92301C11.9564 7.70972 11.9564 7.36382 12.1956 7.15053C12.4349 6.93724 12.8229 6.93724 13.0621 7.15053L14.6976 8.60866L16.9397 6.60775C17.179 6.39446 17.5669 6.39378 17.8062 6.60775C18.0462 6.82103 18.047 7.16762 17.8069 7.38091Z" fill="#009961"/>
</svg>
