<svg width="33" height="35" viewBox="0 0 33 35" fill="none" xmlns="http://www.w3.org/2000/svg">
<path fill-rule="evenodd" clip-rule="evenodd" d="M22.9195 4.77802C22.8475 4.55863 22.6588 4.39821 22.4312 4.36519L18.5729 3.80609L16.8473 0.309956C16.8248 0.265133 16.7977 0.227388 16.7659 0.192002C16.7281 0.149539 16.6845 0.114153 16.6361 0.0858445C16.596 0.0622539 16.5536 0.0433813 16.5087 0.029227C16.2351 -0.0533403 15.8977 0.0386632 15.7644 0.309956L14.0388 3.80609L10.1794 4.36519C9.95171 4.40057 9.76299 4.55863 9.69222 4.77802C9.65093 4.90541 9.65329 5.03988 9.69576 5.16255L9.71581 5.21209L9.73468 5.2522C9.76299 5.3041 9.79955 5.35599 9.84438 5.39846L12.6375 8.11846L11.9782 11.9614C11.9392 12.1902 12.0324 12.419 12.2176 12.5511C12.4051 12.688 12.6505 12.7068 12.8545 12.5983L16.3059 10.7818L19.7572 12.5983C19.7926 12.6172 19.8279 12.6313 19.8645 12.6431L19.9636 12.6644L20.0379 12.6691C20.1629 12.6691 20.288 12.629 20.3929 12.5511C20.5793 12.419 20.6725 12.1902 20.6336 11.9614L19.9742 8.11846L22.7662 5.39846L22.8098 5.35128L22.8452 5.30174L22.8829 5.2404L22.9148 5.16491L22.9372 5.08234C22.9572 4.98326 22.9513 4.8771 22.9195 4.77802ZM18.9032 7.47443C18.8277 7.54757 18.7746 7.63957 18.7463 7.73865C18.7204 7.82593 18.7145 7.91794 18.7298 8.00994L19.2358 10.9611L16.5866 9.56693C16.4981 9.5221 16.4026 9.49851 16.3059 9.49851C16.2091 9.49851 16.1124 9.51974 16.0239 9.56693L13.3747 10.9611L13.8807 8.00994C13.9149 7.81414 13.8501 7.61362 13.7073 7.47443L11.5641 5.38666L14.5259 4.95495C14.7229 4.92664 14.8928 4.80397 14.9812 4.62468L16.3059 1.94007L17.6305 4.62468C17.7178 4.80397 17.8876 4.92664 18.0846 4.95495L21.0464 5.38666L18.9032 7.47443ZM30.4933 16.8918C30.1654 16.9461 29.9436 17.2575 29.999 17.5854C30.0557 17.9227 30.1005 18.2601 30.1323 18.5974C30.1748 19.0362 30.196 19.4703 30.196 19.902C30.196 24.1577 28.2982 28.0007 25.242 30.5602C24.7077 27.0924 22.2472 24.3134 18.9787 23.3179C20.2785 22.4521 21.1372 20.973 21.1372 19.2981C21.1372 17.8354 20.4838 16.5238 19.4552 15.6368C18.6083 14.9078 17.5078 14.4667 16.3059 14.4667C13.6413 14.4667 11.4745 16.6323 11.4745 19.2981C11.4745 20.973 12.3332 22.4521 13.633 23.3179C10.3645 24.3134 7.90405 27.0924 7.36972 30.5602C4.31237 28.0007 2.41568 24.1577 2.41568 19.902C2.41568 19.14 2.48174 18.3592 2.61266 17.5854C2.6681 17.2575 2.44635 16.9461 2.11726 16.8918C1.78109 16.8352 1.47677 17.057 1.42134 17.3872C1.27979 18.2247 1.20784 19.0716 1.20784 19.902C1.20784 27.3189 6.50512 33.5798 13.8029 34.7877L13.902 34.7948C14.0506 34.7948 14.1898 34.7381 14.2983 34.6461C14.3537 34.599 14.3997 34.54 14.4351 34.4739C14.4658 34.4173 14.487 34.356 14.4976 34.2899C14.5519 33.962 14.329 33.6506 13.9999 33.594C13.4266 33.4996 12.8675 33.3699 12.3238 33.2095C11.951 33.0986 11.5854 32.9736 11.228 32.8344C10.2549 32.4546 9.33836 31.971 8.49145 31.3977C8.7828 27.3 12.1515 24.1294 16.3059 24.1294C20.4602 24.1294 23.8289 27.3 24.1203 31.3977C23.3382 31.9261 22.4984 32.3791 21.6079 32.7447C20.6619 33.134 19.6593 33.4218 18.6107 33.594C18.2816 33.6506 18.0586 33.962 18.1141 34.2899C18.1624 34.5848 18.4184 34.7948 18.7086 34.7948L18.8076 34.7877C26.1066 33.5798 31.4039 27.3189 31.4039 19.902C31.4039 19.4915 31.3862 19.0763 31.3508 18.6588C31.3154 18.2341 31.2623 17.8095 31.1904 17.3872C31.1739 17.2881 31.1349 17.1985 31.0795 17.123C30.9486 16.9484 30.7268 16.8494 30.4933 16.8918ZM12.6823 19.2981C12.6823 17.2999 14.3077 15.6745 16.3059 15.6745C17.266 15.6745 18.14 16.0496 18.7888 16.6606C19.4906 17.3212 19.9294 18.2601 19.9294 19.2981C19.9294 21.2962 18.304 22.9216 16.3059 22.9216C14.3077 22.9216 12.6823 21.2962 12.6823 19.2981ZM2.09367 15.0848C1.90848 14.9527 1.8153 14.7238 1.85422 14.495L2.37086 11.4848L0.181648 9.35225C0.0636947 9.23666 0 9.08096 0 8.92054C0 8.85685 0.00943626 8.79315 0.0294883 8.73182C0.10026 8.51242 0.288985 8.35437 0.516635 8.31898L3.54096 7.88019L4.89388 5.14132C5.01891 4.88654 5.32559 4.78982 5.5898 4.8488C5.75258 4.88654 5.89884 4.98326 5.97669 5.14132L7.32843 7.88019L10.3528 8.31898C10.5804 8.35201 10.7691 8.51242 10.8411 8.73182C10.9119 8.95121 10.8529 9.19183 10.6877 9.35225L8.49971 11.4848L9.01635 14.495C9.05527 14.7238 8.96209 14.9527 8.77572 15.0848C8.67074 15.1626 8.54571 15.2027 8.42068 15.2027C8.36288 15.2027 8.30509 15.1933 8.24847 15.1768C8.2119 15.165 8.17534 15.1508 8.13995 15.132L5.43528 13.7094L2.73062 15.132C2.52774 15.2405 2.28122 15.2216 2.09367 15.0848ZM4.02928 9.03142L1.90141 9.34045L3.4407 10.8385L3.49967 10.9069L3.5327 10.9517L3.56573 11.0154L3.59639 11.0932C3.62352 11.1829 3.6306 11.2796 3.61409 11.3763L3.25079 13.4948L5.15338 12.4945C5.18286 12.478 5.21353 12.4662 5.2442 12.4568C5.30554 12.4355 5.37041 12.4238 5.43528 12.4238C5.4919 12.4238 5.54734 12.4308 5.6016 12.4473L5.66176 12.4709L5.71601 12.4945L7.6186 13.4948L7.2553 11.3763C7.24823 11.3339 7.24587 11.2914 7.24823 11.2489C7.24941 11.2065 7.2553 11.1664 7.26474 11.1263C7.29069 11.0177 7.34731 10.9187 7.42869 10.8385L8.96798 9.34045L6.84129 9.03142C6.75282 9.01726 6.67026 8.9866 6.59712 8.93941C6.54522 8.90639 6.49922 8.86392 6.4603 8.81674C6.43199 8.78136 6.40722 8.74361 6.38599 8.70115L5.43528 6.77143L4.4834 8.70115C4.43622 8.79787 4.36427 8.87808 4.27816 8.9347C4.20503 8.98424 4.12011 9.01726 4.02928 9.03142ZM32.0939 8.31898L29.0696 7.88019L27.7178 5.14132C27.5149 4.72848 26.8379 4.72848 26.635 5.14132L25.2821 7.88019L22.2578 8.31898C22.0301 8.35437 21.8414 8.51242 21.7706 8.73182C21.6999 8.95121 21.7588 9.19183 21.9228 9.35225L24.112 11.4848L23.5954 14.495C23.5718 14.6342 23.5965 14.7734 23.6614 14.8913C23.7039 14.9668 23.7617 15.0329 23.8348 15.0848C24.0224 15.2216 24.2677 15.2405 24.4718 15.132L27.1764 13.7094L29.8811 15.132C29.9696 15.1791 30.0663 15.2027 30.1618 15.2027C30.2868 15.2027 30.4119 15.1626 30.5169 15.0848C30.7032 14.9527 30.7964 14.7238 30.7575 14.495L30.2408 11.4848L32.4289 9.35225C32.594 9.19183 32.653 8.95121 32.5822 8.73182C32.5103 8.51242 32.3215 8.35201 32.0939 8.31898ZM29.1698 10.8385C29.0283 10.98 28.9634 11.1782 28.9964 11.3763L29.3597 13.4948L27.4572 12.4945C27.4194 12.4733 27.3793 12.4591 27.3392 12.4473C27.3074 12.4379 27.2743 12.4308 27.2413 12.4261L27.1764 12.4238C27.1446 12.4238 27.1127 12.4285 27.0809 12.4332L27.0526 12.4355C27.0148 12.445 26.9771 12.4568 26.9405 12.4733L26.8945 12.4945L24.9919 13.4948L25.3552 11.3763C25.3894 11.1782 25.3246 10.98 25.1818 10.8385L23.6425 9.34045L25.7704 9.03142C25.8624 9.01726 25.9474 8.98424 26.0217 8.9347C26.1078 8.87572 26.1774 8.79551 26.2245 8.70115L27.1764 6.77143L28.1271 8.70115C28.2156 8.87808 28.3854 9.00075 28.5824 9.03142L30.7091 9.34045L29.1698 10.8385ZM16.9098 34.3961C16.9098 34.7287 16.6397 35 16.3059 35C15.972 35 15.7019 34.7287 15.7019 34.3961C15.7019 34.1956 15.7987 34.0186 15.9485 33.9078C16.0487 33.8346 16.1726 33.7922 16.3059 33.7922C16.6397 33.7922 16.9098 34.0635 16.9098 34.3961Z" fill="#009961"/>
</svg>
