<svg width="14" height="14" viewBox="0 0 14 14" fill="none" xmlns="http://www.w3.org/2000/svg">
<path d="M14 10.0625C14 10.3044 13.8041 10.5 13.5625 10.5H1.49365L3.37184 12.3782C3.54279 12.5492 3.54279 12.826 3.37184 12.9968C3.28642 13.0823 3.17442 13.125 3.06253 13.125C2.95064 13.125 2.83864 13.0823 2.75321 12.9968L0.128215 10.3718C-0.0427383 10.2009 -0.0427383 9.92406 0.128215 9.75321L2.75321 7.12821C2.92417 6.95726 3.201 6.95726 3.37184 7.12821C3.54268 7.29917 3.54279 7.576 3.37184 7.74684L1.49365 9.62503H13.5625C13.8041 9.62503 14 9.8207 14 10.0625ZM13.8718 3.62821L11.2468 1.00321C11.0759 0.832262 10.7991 0.832262 10.6282 1.00321C10.4574 1.17417 10.4573 1.451 10.6282 1.62184L12.5064 3.50003H0.437527C0.195918 3.50003 2.73352e-05 3.6957 2.73352e-05 3.93753C2.73352e-05 4.17936 0.195918 4.37503 0.437527 4.37503H12.5064L10.6282 6.25322C10.4573 6.42417 10.4573 6.701 10.6282 6.87184C10.7136 6.95726 10.8256 7.00003 10.9375 7.00003C11.0494 7.00003 11.1614 6.95726 11.2468 6.87184L13.8718 4.24684C14.0428 4.076 14.0428 3.79906 13.8718 3.62821Z" fill="#009961"/>
</svg>
