<svg width="303" height="309" viewBox="0 0 303 309" fill="none" xmlns="http://www.w3.org/2000/svg">
<path d="M140.784 13.3619C140.784 13.3619 6.80228 -0.820994 11.1013 157.208C15.4003 315.235 133.619 297.001 168.01 293.964C202.401 290.924 289.812 283.834 291.961 150.117C294.111 16.3995 207.416 7.28326 140.784 13.3619Z" fill="#EBF0E7"/>
<path d="M136.367 4.34102C136.367 4.34102 135.511 4.79668 134.014 5.41297C132.535 6.05712 130.342 6.68161 127.852 7.50443C126.602 7.89125 125.256 8.26823 123.841 8.6108C122.428 8.92222 120.92 9.38444 119.373 9.69423C117.824 10.0417 116.222 10.3089 114.602 10.658C112.983 11.0038 111.329 11.2464 109.677 11.5021C108.029 11.7808 106.383 12.0791 104.747 12.2594C103.111 12.4479 101.507 12.6855 99.9409 12.8544C98.3797 13.0494 96.8396 13.0806 95.3955 13.2395C93.9461 13.3658 92.5612 13.4379 91.2696 13.4674C88.676 13.4772 86.5046 13.5674 84.9277 13.4248C83.3573 13.3133 82.4248 13.151 82.4248 13.151C82.4248 13.151 83.1376 12.42 84.445 11.312C85.0986 10.7596 85.9062 10.1253 86.8453 9.4287C87.7817 8.72062 88.8588 7.99615 90.0636 7.31265C91.2657 6.61605 92.5809 5.90305 93.9895 5.19825C95.3955 4.48033 96.9172 3.92469 98.4928 3.32971C100.072 2.76095 101.707 2.15121 103.405 1.78898C105.093 1.34971 106.823 1.01698 108.55 0.664574C110.293 0.456412 112.034 0.235135 113.755 0.122039C115.471 -0.0549809 117.173 -0.00252932 118.816 0.0515601C120.464 0.12204 122.035 0.177767 123.557 0.418711C125.073 0.644903 126.5 0.910437 127.81 1.19727C129.127 1.46936 130.3 1.82012 131.335 2.19547C132.373 2.5577 133.279 2.90683 134.023 3.22644C135.516 3.8706 136.367 4.34102 136.367 4.34102Z" fill="#EBF0E7"/>
<path d="M298.726 113.118C298.726 113.118 297.991 110.405 296.801 105.665C296.123 103.331 295.429 100.507 294.442 97.317C293.52 94.1109 292.329 90.5754 291.011 86.7728C289.647 82.9931 288.121 78.9495 286.274 74.8616C284.512 70.7164 282.332 66.6056 280.038 62.4408C277.663 58.3365 275.011 54.3159 272.148 50.4329C269.228 46.6139 266.081 42.962 262.726 39.6085C259.414 36.1845 255.812 33.203 252.198 30.3936C250.392 28.9824 248.523 27.7317 246.701 26.4287C244.831 25.2371 242.996 24.0209 241.135 22.9407C237.44 20.7231 233.758 18.7939 230.205 17.1122C226.667 15.3731 223.231 13.9668 220.05 12.6506C216.858 11.3787 213.901 10.2576 211.261 9.30202C208.602 8.39561 206.283 7.60557 204.374 6.95486C202.447 6.31562 200.934 5.81407 199.902 5.4715C198.867 5.11254 198.314 4.92241 198.314 4.92241C198.314 4.92241 198.887 4.89618 199.96 4.84701C201.03 4.83718 202.613 4.71261 204.612 4.80112C206.617 4.8257 209.055 4.92405 211.845 5.18466C213.241 5.33874 214.727 5.50428 216.293 5.67802C217.856 5.91077 219.497 6.17794 221.211 6.48608C224.625 7.17777 228.333 8.00551 232.197 9.26923C234.145 9.82652 236.097 10.6346 238.122 11.3525C240.121 12.1753 242.166 13.0227 244.208 14.0389C248.307 15.9976 252.47 18.3644 256.504 21.2541C260.554 24.0979 264.526 27.3679 268.222 31.1C271.898 34.8552 275.374 38.9381 278.452 43.3423C281.51 47.7661 284.218 52.4244 286.525 57.1498C288.766 61.9212 290.741 66.6581 292.212 71.3426C293.761 75.9828 294.882 80.5132 295.789 84.7059C296.659 88.9151 297.275 92.8111 297.675 96.2811C298.189 99.7133 298.289 102.814 298.509 105.289C298.669 107.773 298.647 109.736 298.7 111.069C298.717 112.405 298.726 113.118 298.726 113.118Z" fill="#EBF0E7"/>
<path d="M240.075 282.305C240.075 282.305 240.555 281.91 241.454 281.168C242.343 280.425 243.725 279.416 245.333 277.978C246.141 277.275 247.034 276.498 248.006 275.651C248.942 274.723 249.981 273.792 251.072 272.769C253.223 270.666 255.555 268.18 258.008 265.387C259.214 263.961 260.454 262.459 261.712 260.889C262.906 259.227 264.249 257.668 265.444 255.836C267.987 252.359 270.366 248.375 272.779 244.254C275.128 240.06 277.359 235.574 279.491 230.914C281.545 226.195 283.504 221.315 285.254 216.303C286.998 211.284 288.534 206.152 289.948 201.042C291.275 195.897 292.523 190.793 293.539 185.772C294.536 180.75 295.451 175.856 296.136 171.158C296.882 166.472 297.419 161.992 297.914 157.841C298.134 155.756 298.345 153.759 298.544 151.86C298.719 149.949 298.885 148.136 299.042 146.431C299.261 143.014 299.535 140.016 299.658 137.539C299.953 132.558 300.121 129.711 300.121 129.711C300.121 129.711 300.25 130.409 300.494 131.719C300.704 133.033 301.109 134.958 301.401 137.438C301.755 139.914 302.109 142.937 302.397 146.428C302.516 148.178 302.645 150.04 302.779 152.004C302.868 153.971 302.928 156.044 302.987 158.211C303.027 162.542 302.994 167.252 302.683 172.22C302.42 177.195 301.883 182.425 301.143 187.805C300.759 190.493 300.329 193.218 299.797 195.956C299.33 198.711 298.681 201.452 298.063 204.223C296.752 209.745 295.122 215.249 293.294 220.66C291.369 226.02 289.23 231.271 286.832 236.239C284.398 241.181 281.75 245.856 278.939 250.127C276.074 254.346 273.17 258.281 270.112 261.612C268.642 263.346 267.061 264.836 265.598 266.342C264.067 267.755 262.594 269.122 261.134 270.345C259.631 271.497 258.257 272.7 256.844 273.646C255.428 274.584 254.124 275.531 252.843 276.298C251.556 277.052 250.371 277.783 249.249 278.393C248.103 278.949 247.051 279.458 246.1 279.919C245.159 280.394 244.315 280.768 243.561 281.022C242.813 281.302 242.178 281.542 241.663 281.737C240.628 282.107 240.075 282.305 240.075 282.305Z" fill="#EBF0E7"/>
<path d="M21.9053 240.605C21.9053 240.605 22.4037 241.369 23.3389 242.8C23.8005 243.52 24.37 244.408 25.0394 245.452C25.6931 246.518 26.4954 247.68 27.4147 248.932C28.3301 250.194 29.3086 251.609 30.42 253.094C31.605 254.516 32.8321 256.098 34.1605 257.757C35.5204 259.379 37.0645 260.979 38.6256 262.725C40.2512 264.385 41.9834 266.09 43.7865 267.852C44.7282 268.668 45.6897 269.502 46.6695 270.353C47.6388 271.214 48.6371 272.069 49.709 272.839C50.769 273.63 51.8225 274.47 52.8957 275.314C53.9913 276.116 55.1369 276.867 56.2758 277.66C60.8686 280.768 65.9032 283.582 71.2575 286.014C76.6091 288.447 82.2435 290.625 88.1015 292.287C93.9529 293.957 99.9739 295.319 106.056 296.283C112.13 297.317 118.266 297.914 124.328 298.319C130.391 298.686 136.382 298.852 142.199 298.832C148.015 298.794 153.656 298.691 159.029 298.48C161.723 298.368 164.345 298.261 166.882 298.157C169.425 298.101 171.883 298.047 174.243 297.994C176.612 297.971 178.845 297.842 180.978 297.783C183.111 297.707 185.149 297.735 187.047 297.581C188.948 297.467 190.728 297.319 192.384 297.26C194.038 297.188 195.561 297.131 196.924 296.957C199.654 296.657 201.823 296.519 203.297 296.381C204.778 296.273 205.569 296.216 205.569 296.216C205.569 296.216 204.811 296.488 203.391 296.999C201.964 297.481 199.877 298.25 197.191 299.106C194.51 300.012 191.212 300.784 187.421 301.738C183.636 302.61 179.297 303.518 174.624 304.251C169.94 305.019 164.904 305.875 159.505 306.616C154.111 307.38 148.387 308.124 142.432 308.519C136.478 308.935 130.295 309.129 124.003 308.911C117.71 308.742 111.307 308.139 104.928 307.116C98.5574 306.044 92.2076 304.574 86.0537 302.558C84.5201 302.03 82.9918 301.504 81.4728 300.981C79.9721 300.368 78.478 299.756 76.9945 299.15C75.5043 298.575 74.0668 297.811 72.6174 297.158C71.898 296.814 71.1799 296.47 70.4657 296.129C69.7634 295.744 69.0637 295.36 68.368 294.978C65.5652 293.51 62.8861 291.836 60.2965 290.137C59.0075 289.271 57.7712 288.319 56.5323 287.43C55.9168 286.98 55.3039 286.531 54.695 286.085C54.1057 285.598 53.5191 285.116 52.9378 284.636C48.1991 280.969 44.1811 276.657 40.58 272.644C38.8611 270.512 37.1789 268.527 35.7019 266.496C34.2841 264.39 32.8939 262.461 31.6905 260.546C30.5292 258.583 29.427 256.775 28.4564 255.064C27.5318 253.295 26.7321 251.63 25.993 250.161C25.6273 249.425 25.2814 248.727 24.9553 248.071C24.6554 247.401 24.4081 246.752 24.1596 246.16C23.6716 244.969 23.2573 243.957 22.9206 243.136C22.2578 241.487 21.9053 240.605 21.9053 240.605Z" fill="#EBF0E7"/>
<path d="M49.4509 27.3066C49.4509 27.3066 48.9419 27.8934 47.9857 28.9916C47.0493 30.1013 45.5499 31.6141 43.8665 33.74C43.0168 34.7825 42.0765 35.9363 41.0532 37.1919C40.0747 38.5015 39.0173 39.916 37.8875 41.4289C36.7275 42.8926 35.649 44.6366 34.4745 46.4084C33.8997 47.3099 33.2698 48.1835 32.6766 49.1342C32.1058 50.1045 31.5218 51.0978 30.9247 52.1124C30.3289 53.1204 29.72 54.1481 29.0992 55.1955C28.5323 56.2887 27.955 57.4033 27.3671 58.5359C26.7936 59.6783 26.1557 60.7863 25.5863 61.9796C25.0391 63.1876 24.4841 64.4136 23.9199 65.656C23.3833 66.9165 22.7322 68.1081 22.2456 69.4439C21.7314 70.7552 21.2118 72.0828 20.6858 73.4252C19.5731 76.0641 18.7313 78.944 17.7515 81.7829C17.5187 82.5008 17.2583 83.2056 17.0452 83.9382C16.8427 84.6775 16.6401 85.42 16.435 86.1657C16.0194 87.6491 15.6011 89.1439 15.1803 90.6486C14.7199 92.132 14.4464 93.712 14.086 95.2593C13.7322 96.8099 13.3771 98.367 13.0194 99.9307C12.3696 103.084 11.9067 106.328 11.2898 109.531C10.8085 112.778 10.4323 116.069 9.99304 119.341C9.63793 122.633 9.39725 125.954 9.09212 129.249C8.83959 132.552 8.75147 135.872 8.56603 139.152L8.44371 141.611L8.42136 144.068C8.40031 145.703 8.37927 147.331 8.35823 148.947C8.33587 150.532 8.31483 152.107 8.29247 153.671C8.32403 155.303 8.35428 156.926 8.38585 158.534C8.41347 160.142 8.43977 161.737 8.46739 163.317C8.48054 164.913 8.60285 166.379 8.64757 167.896C8.80277 170.901 8.84091 173.841 9.10001 176.725C9.32228 179.601 9.47616 182.424 9.73789 185.128C10.0141 187.837 10.2811 190.453 10.5362 192.966C11.2188 197.951 11.7502 202.581 12.5012 206.61C13.1364 210.684 13.9203 214.163 14.4806 217.085C15.0856 219.985 15.6656 222.23 16.0128 223.79C16.364 225.354 16.5507 226.187 16.5507 226.187C16.5507 226.187 16.2022 225.441 15.5498 224.041C15.2289 223.335 14.833 222.463 14.3675 221.438C13.9045 220.411 13.3416 219.239 12.8484 217.855C11.8317 215.107 10.4336 211.811 9.28809 207.818C8.69492 205.831 7.94788 203.746 7.39023 201.47C6.81153 199.193 6.20258 196.798 5.56733 194.299C5.04782 191.758 4.50727 189.111 3.94699 186.372C3.41038 183.622 3.03686 180.74 2.55286 177.79C2.03861 174.853 1.81239 171.735 1.42835 168.588C1.02194 165.399 0.849652 162.258 0.620805 159.057C0.511642 157.454 0.402478 155.838 0.292 154.21C0.247283 152.509 0.203878 150.796 0.159161 149.072C0.107868 145.689 -0.105198 142.268 0.0644647 138.805C0.18941 135.344 0.165739 131.848 0.428783 128.351C0.724707 124.854 0.948291 121.334 1.31129 117.829C1.80055 114.341 2.23194 110.842 2.77513 107.379C3.43537 103.938 4.06799 100.506 4.82555 97.1426C5.69491 93.8104 6.44853 90.4683 7.45993 87.2721C7.97418 85.6789 8.4858 84.0956 8.99216 82.5221C9.24994 81.7386 9.50641 80.9584 9.76156 80.1815C10.0325 79.4128 10.3521 78.6686 10.6428 77.9179C11.8659 74.9446 12.9023 71.9288 14.307 69.2194C15.6301 66.4624 16.869 63.735 18.3512 61.2912C19.0588 60.0488 19.7559 58.8227 20.4438 57.6147C21.1527 56.4281 21.9207 55.3233 22.6507 54.2169C23.3846 53.1188 24.1066 52.0386 24.8155 50.9798C25.5639 49.9635 26.3215 48.9916 27.0606 48.0409C27.7998 47.0935 28.5218 46.1658 29.2294 45.2594C29.9554 44.3792 30.7077 43.5695 31.4298 42.7729C32.8844 41.1912 34.2167 39.6472 35.6056 38.3851C36.9721 37.0952 38.1979 35.8282 39.4197 34.7857C40.6573 33.7744 41.795 32.8467 42.8222 32.0075C43.3325 31.5945 43.8165 31.2027 44.2702 30.8339C44.7424 30.5077 45.1856 30.2029 45.5973 29.9193C46.4219 29.3522 47.1229 28.8703 47.6911 28.4802C48.8393 27.7148 49.4509 27.3066 49.4509 27.3066Z" fill="#EBF0E7"/>
</svg>
