<svg width="57" height="40" viewBox="0 0 57 40" fill="none" xmlns="http://www.w3.org/2000/svg">
<path fill-rule="evenodd" clip-rule="evenodd" d="M55.0066 29.1097H54.4584C54.1477 27.9064 53.3383 26.8706 52.2304 26.2885C51.6986 26.0092 51.1272 25.843 50.5323 25.7947C50.1313 25.7622 49.7412 25.5828 49.4338 25.2895C49.0108 24.886 48.5369 24.5382 48.0255 24.2557C47.8642 24.1666 47.7596 24.0081 47.7456 23.8317C47.4789 20.4928 45.6438 18.7857 44.1694 17.4141L44.163 17.4082C43.8951 17.1588 43.6419 16.9232 43.4132 16.6912C42.9542 16.2257 42.7019 15.6013 42.7028 14.9321V14.9186C42.7028 14.1113 42.5618 13.3196 42.2836 12.5654C42.1255 12.1369 41.6502 11.9175 41.2215 12.0755C40.7928 12.2336 40.5736 12.7091 40.7316 13.1376C40.942 13.7081 41.0487 14.3072 41.0487 14.9184V14.9309C41.0472 16.0371 41.4687 17.0746 42.2353 17.8523C42.4897 18.1104 42.7565 18.3586 43.0387 18.6212L43.0389 18.6213L43.0428 18.6249C44.4383 19.9231 45.8813 21.2655 46.0966 23.963C46.155 24.6944 46.577 25.3449 47.2254 25.7032C47.6128 25.9172 47.9718 26.1807 48.2922 26.4864C48.8729 27.0402 49.6209 27.38 50.3983 27.4432C50.7701 27.4733 51.1276 27.5775 51.4611 27.7527C52.0352 28.0543 52.4716 28.5315 52.7187 29.1095H44.8854C44.4285 29.1095 44.0583 29.4798 44.0583 29.9366C44.0583 30.3933 44.4285 30.7636 44.8854 30.7636H55.0066C55.1722 30.7636 55.307 30.8984 55.307 31.064V31.9568C53.3727 32.059 51.4945 32.6343 49.8407 33.639C48.2686 34.5941 46.4599 35.099 44.6098 35.099C42.7599 35.099 40.9511 34.5941 39.3788 33.639C38.9883 33.402 38.4797 33.526 38.2425 33.9165C38.0054 34.3069 38.1297 34.8156 38.52 35.0528C40.3511 36.1651 42.4569 36.7531 44.6098 36.7531C46.7627 36.7531 48.8685 36.1651 50.6995 35.0528C52.0946 34.2053 53.676 33.7133 55.307 33.6129V38.0474C55.307 38.213 55.1722 38.3477 55.0066 38.3477H20.9702C21.868 36.6191 23.8414 35.6694 25.8143 36.1346C26.2591 36.2393 26.7043 35.9639 26.8091 35.5193C26.9139 35.0746 26.6384 34.6293 26.1939 34.5245C23.1905 33.8172 20.1866 35.483 19.1721 38.3476H2.45452C2.28889 38.3476 2.15413 38.2128 2.15413 38.0473V31.0639C2.15413 30.8983 2.28889 30.7635 2.45452 30.7635H4.29657C5.48688 33.2537 8.81224 34.9136 12.6603 34.9136C16.5035 34.9136 19.8331 33.2525 21.0236 30.7635H41.2475C41.7044 30.7635 42.0746 30.3932 42.0746 29.9364C42.0746 29.4797 41.7044 29.1094 41.2475 29.1094H14.5597C14.1028 29.1094 13.7326 29.4797 13.7326 29.9364C13.7326 30.3932 14.1028 30.7635 14.5597 30.7635H19.0814C17.8858 32.267 15.4116 33.2595 12.6602 33.2595C9.90496 33.2595 7.43258 32.2674 6.23808 30.7635H10.9215C11.3784 30.7635 11.7486 30.3932 11.7486 29.9364C11.7486 29.4797 11.3784 29.1094 10.9215 29.1094H4.74385C4.77164 29.0453 4.80097 28.9817 4.83372 28.9193C5.134 28.3476 5.60587 27.9118 6.19827 27.6588C7.67365 27.0288 8.88216 26.1465 9.79017 25.0362C10.5295 24.1323 11.4827 23.4076 12.5466 22.9406C13.3491 22.5883 13.8673 21.7998 13.8666 20.9259L13.8665 20.9181C13.8665 18.3392 15.177 15.9872 17.3722 14.6266C18.6331 13.845 19.58 12.7337 20.1104 11.413C20.1241 11.3789 20.138 11.3451 20.1527 11.3101C20.7294 9.93366 21.6933 8.77842 22.9399 7.96954C24.752 6.79379 26.1319 5.18277 26.9306 3.31062C26.9929 3.16451 27.0689 3.0217 27.1564 2.88617C27.8691 1.78187 29.528 1.32169 30.7061 1.9013C31.3553 2.22066 31.8482 2.76829 32.094 3.44306C32.4228 4.34633 33.1372 5.05794 34.0538 5.3956C34.5615 5.58252 35.0008 5.91268 35.324 6.35048C35.5965 6.71946 35.7744 7.15251 35.8387 7.6031C36.0006 8.73761 36.7648 9.71168 37.8334 10.1451C38.182 10.2865 38.5164 10.4673 38.8272 10.6825C39.2028 10.9428 39.7181 10.8489 39.9781 10.4735C40.2381 10.098 40.1446 9.58277 39.769 9.32263C39.3585 9.03823 38.9165 8.79926 38.4552 8.61212C37.9303 8.39929 37.5552 7.92312 37.4763 7.36954C37.3735 6.64866 37.0894 5.95657 36.6547 5.36792C36.1391 4.66955 35.4374 4.14232 34.6255 3.84336C34.1666 3.67431 33.8104 3.3222 33.6484 2.87713C33.2558 1.79941 32.4702 0.925692 31.4364 0.417101C29.5212 -0.525204 26.9247 0.194675 25.7666 1.9893C25.6284 2.20334 25.5082 2.42952 25.4093 2.66154C24.7401 4.2301 23.5748 5.58572 22.0396 6.58184C20.5128 7.57244 19.3328 8.9864 18.6274 10.6699C18.6099 10.7117 18.5928 10.7536 18.5756 10.7959C18.1774 11.7876 17.4598 12.6259 16.5008 13.2205C13.8154 14.885 12.2124 17.7626 12.2124 20.9243L12.2125 20.9328C12.2127 21.1441 12.0828 21.3375 11.8818 21.4258C10.5796 21.9974 9.41369 22.8838 8.50976 23.9889C7.77234 24.8905 6.77611 25.6133 5.54864 26.1374C4.61571 26.5359 3.84168 27.2506 3.36926 28.1499C3.20826 28.4563 3.08552 28.7778 3.00039 29.1093H2.45452C1.3768 29.1097 0.5 29.9864 0.5 31.0641V38.0475C0.5 39.1252 1.3768 40.002 2.45452 40.002H55.0067C56.0843 40.002 56.9612 39.1252 56.9612 38.0475V31.0641C56.9611 29.9864 56.0843 29.1097 55.0066 29.1097ZM32.2704 33.2597H32.2664C31.8114 33.2597 31.4416 33.6275 31.4394 34.0829C31.4372 34.5397 31.8059 34.9118 32.2626 34.9139H32.2742H32.2782C32.7332 34.9139 33.1029 34.5461 33.1052 34.0906C33.1074 33.6339 32.7387 33.2618 32.2819 33.2597H32.2704ZM18.7439 17.8622H18.7322C18.2753 17.8622 17.9051 17.4919 17.9051 17.0351C17.9051 16.5784 18.2753 16.208 18.7322 16.208H18.7439C19.2008 16.208 19.571 16.5784 19.571 17.0351C19.571 17.4919 19.2008 17.8622 18.7439 17.8622ZM17.3142 22.1263H17.3025H17.2986C16.8436 22.1263 16.4738 22.494 16.4717 22.9496C16.4696 23.4064 16.8381 23.7783 17.295 23.7804H17.3067H17.3105C17.7655 23.7804 18.1354 23.4126 18.1375 22.9571C18.1395 22.5003 17.7709 22.1284 17.3142 22.1263ZM20.4743 19.7621H20.4704H20.4588C20.002 19.76 19.6334 19.3879 19.6356 18.9311C19.6378 18.4757 20.0075 18.1079 20.4625 18.1079H20.4665H20.4781C20.9348 18.11 21.3035 18.4821 21.3013 18.9389C21.2991 19.3943 20.9293 19.7621 20.4743 19.7621ZM34.4282 22.9557C33.9713 22.9557 33.6011 23.326 33.6011 23.7828C33.6011 24.2395 33.9713 24.6098 34.4282 24.6098H34.4398C34.8966 24.6098 35.2668 24.2395 35.2668 23.7828C35.2668 23.326 34.8966 22.9557 34.4398 22.9557H34.4282ZM38.1157 15.2156H38.1117H38.1001C37.6434 15.2135 37.2747 14.8414 37.2769 14.3847C37.2791 13.9292 37.6489 13.5614 38.1039 13.5614H38.1079H38.1194C38.5762 13.5635 38.9448 13.9356 38.9426 14.3924C38.9404 14.8478 38.5707 15.2156 38.1157 15.2156ZM31.9814 8.39586H31.9854C32.4404 8.39586 32.8101 8.02809 32.8123 7.57265C32.8145 7.11589 32.4459 6.74382 31.9891 6.74173H31.9775H31.9736C31.5186 6.74173 31.1488 7.1095 31.1466 7.56493C31.1444 8.0217 31.5131 8.39376 31.9698 8.39586H31.9814ZM29.0847 13.0967C28.8778 13.0967 28.6708 13.0196 28.5102 12.8646C28.0761 12.4454 27.5052 12.2145 26.9024 12.2145C26.3 12.2145 25.729 12.4454 25.2947 12.8647C24.9662 13.1819 24.4425 13.1726 24.1254 12.8441C23.8082 12.5155 23.8174 11.9919 24.146 11.6746C24.8902 10.9561 25.8693 10.5604 26.9025 10.5604C27.936 10.5604 28.9151 10.9561 29.6592 11.6747C29.9878 11.9919 29.997 12.5156 29.6797 12.8441C29.5175 13.0121 29.3012 13.0967 29.0847 13.0967ZM19.516 26.3094C19.7228 26.3094 19.9299 26.2323 20.0904 26.0774C20.7675 25.4236 21.6579 25.0635 22.5976 25.0635C23.5373 25.0635 24.4278 25.4236 25.105 26.0774C25.4335 26.3948 25.9572 26.3853 26.2743 26.0569C26.5916 25.7283 26.5824 25.2047 26.2537 24.8874C25.2666 23.9343 23.968 23.4094 22.5975 23.4094C21.2268 23.4094 19.9283 23.9343 18.9412 24.8874C18.6127 25.2047 18.6035 25.7283 18.9207 26.0569C19.0833 26.225 19.2995 26.3094 19.516 26.3094ZM39.8331 19.713C39.6709 19.881 39.4547 19.9656 39.2381 19.9656C39.0313 19.9656 38.8242 19.8885 38.6636 19.7335C37.6762 18.7803 36.3779 18.2552 35.0076 18.2552C33.9349 18.2552 32.907 18.5782 32.0372 19.1752C32.428 19.5398 32.7447 19.9828 32.9649 20.4856C33.1482 20.9039 32.9577 21.3917 32.5393 21.575C32.4312 21.6223 32.3186 21.6447 32.2078 21.6447C31.8893 21.6447 31.5857 21.4596 31.4497 21.1492C31.2076 20.5963 30.7674 20.1656 30.2101 19.9365C29.6529 19.7075 29.0369 19.7038 28.4761 19.9265C28.0514 20.0951 27.5707 19.8874 27.4022 19.4628C27.2338 19.0382 27.4413 18.5575 27.8659 18.389C28.7119 18.0534 29.6308 18.0181 30.4902 18.282C31.7473 17.1958 33.3363 16.6011 35.0076 16.6011C36.8087 16.6011 38.5151 17.2909 39.8125 18.5435C40.1412 18.8608 40.1504 19.3843 39.8331 19.713Z" fill="#009961"/>
</svg>
