<svg width="46" height="48" viewBox="0 0 46 48" fill="none" xmlns="http://www.w3.org/2000/svg">
<g filter="url(#filter0_d_112_9330)">
<path fill-rule="evenodd" clip-rule="evenodd" d="M32.0516 3.40649C26.9121 -1.20291 19.1029 -1.12262 14.0591 3.59137C9.01534 8.30536 8.40821 16.0914 12.6601 21.5304C14.2997 23.5787 15.3564 26.0314 15.7187 28.6301C14.9929 29.3814 14.9778 30.5678 15.684 31.3374C14.9908 32.0909 14.9908 33.2499 15.684 34.0034C15.1515 34.5873 15.0147 35.4307 15.3353 36.153C15.656 36.8753 16.3735 37.3394 17.1637 37.3359H17.3989C18.2374 38.9263 20.5116 40.002 23.1623 40.002C25.813 40.002 28.0872 38.9262 28.9257 37.3359H29.1609C29.9511 37.3394 30.6686 36.8753 30.9893 36.153C31.31 35.4307 31.1732 34.5872 30.6406 34.0034C31.3338 33.2499 31.3338 32.0909 30.6406 31.3374C31.3392 30.5775 31.3331 29.4073 30.6266 28.6547C30.9127 26.1279 31.9077 23.7336 33.4966 21.7483C35.4445 19.3808 36.5042 16.4073 36.4926 13.3415C36.4902 9.54953 34.8755 5.93732 32.0516 3.40649ZM29.8275 30.0043C29.8275 30.3725 29.5291 30.6708 29.161 30.6708H17.1638C16.7957 30.6708 16.4973 30.3725 16.4973 30.0043C16.4973 29.6362 16.7957 29.3379 17.1638 29.3379H29.161C29.529 29.3379 29.8275 29.6363 29.8275 30.0043ZM29.8275 32.6704C29.8275 33.0386 29.5291 33.3369 29.161 33.3369H17.1638C16.7957 33.3369 16.4973 33.0386 16.4973 32.6704C16.4973 32.3023 16.7957 32.004 17.1638 32.004H29.161C29.529 32.0039 29.8275 32.3023 29.8275 32.6704ZM19.0573 37.336H27.2675C26.1017 38.2553 24.6459 38.7281 23.1624 38.6691C21.6788 38.7281 20.2231 38.2553 19.0573 37.336ZM29.1609 36.003H17.1637C16.7956 36.003 16.4972 35.7046 16.4972 35.3365C16.4972 34.9684 16.7957 34.67 17.1637 34.67H29.1609C29.529 34.67 29.8274 34.9684 29.8274 35.3365C29.8274 35.7046 29.529 36.003 29.1609 36.003ZM32.4635 20.9058C30.8137 22.9596 29.7448 25.4182 29.3682 28.0255C29.3462 28.0233 29.3243 28.0203 29.302 28.0173C29.2568 28.0111 29.2105 28.0048 29.1609 28.0048H17.1637C17.1208 28.0048 17.0806 28.0103 17.0405 28.0159C17.0184 28.0189 16.9963 28.022 16.9737 28.0241C16.5224 25.3482 15.3986 22.8309 13.7078 20.7084C10.4843 16.5709 10.3237 10.8185 13.3115 6.50758C16.2992 2.19662 21.7417 0.327595 26.7476 1.89341C31.7535 3.45922 35.1609 8.0965 35.1595 13.3415C35.1703 16.1002 34.2167 18.7758 32.4635 20.9058ZM22.0839 4.07041C22.3208 4.04408 22.5257 3.89342 22.6214 3.67503C22.7171 3.45672 22.6891 3.20389 22.5478 3.01182C22.4065 2.81976 22.1736 2.71767 21.9366 2.74399C16.9404 3.36463 13.0392 7.36082 12.5388 12.3704C12.5232 12.5466 12.5784 12.7217 12.692 12.8572C12.8056 12.9927 12.9685 13.0775 13.1446 13.0929C13.1644 13.0939 13.1842 13.0939 13.2039 13.0929C13.549 13.0925 13.8367 12.8289 13.8671 12.4851C14.3057 8.10596 17.7164 4.61309 22.0839 4.07041ZM23.8782 7.93484C25.5224 6.28991 28.9663 6.02067 29.1123 6.00997C29.3057 5.99591 29.4955 6.06675 29.6325 6.20391C29.7695 6.34107 29.8398 6.53118 29.8254 6.72449C29.8148 6.87047 29.5455 10.3143 27.9005 11.9586C26.7034 13.1557 24.8786 13.3416 23.8614 13.3416H23.8288V14.2361C23.8448 14.5667 23.8395 14.8513 23.8288 15.0512V16.9481C25.6777 17.7758 26.8654 19.6153 26.8588 21.6411C26.8588 23.6825 25.2038 25.3375 23.1623 25.3375C21.1208 25.3375 19.4658 23.6825 19.4658 21.6411C19.4587 19.6148 20.6464 17.7748 22.4958 16.9468V16.0063H22.4725C21.454 16.0063 19.6278 15.8237 18.4281 14.624C16.7805 12.9791 16.5106 9.53517 16.4999 9.38919C16.4852 9.19595 16.5558 9.006 16.6932 8.86931C16.8303 8.73301 17.0195 8.66256 17.2124 8.67599C17.359 8.6867 20.8075 8.95531 22.4551 10.6002C22.4865 10.6315 22.5147 10.6646 22.5429 10.6976L22.5429 10.6976L22.5429 10.6977L22.543 10.6977L22.543 10.6978C22.558 10.7153 22.573 10.7329 22.5885 10.7502C22.71 9.69904 23.1615 8.71341 23.8782 7.93484ZM17.9309 10.1084C18.1148 11.2162 18.5428 12.8578 19.3692 13.6823C20.2465 14.4001 21.3651 14.7552 22.4958 14.6747V14.2961C22.5059 13.2916 22.1573 12.3165 21.5127 11.546C20.6829 10.7176 19.038 10.291 17.9309 10.1084ZM23.1624 24.0058C24.4676 24.0058 25.5258 22.9477 25.5258 21.6424C25.5366 20.0927 24.5996 18.6937 23.1624 18.1139C21.7254 18.6938 20.7883 20.0927 20.799 21.6424C20.799 22.9477 21.8571 24.0058 23.1624 24.0058ZM23.8288 12.0087C24.596 12.0087 26.087 11.888 26.9614 11.0169C27.7833 10.1924 28.2105 8.55009 28.3931 7.4444C27.286 7.62772 25.645 8.05497 24.8199 8.88009C23.9488 9.75121 23.8248 11.2135 23.8288 12.0087ZM4.5 13.3417C4.5 13.7098 4.79845 14.0082 5.16649 14.0082H7.16603C7.53414 14.0082 7.83251 13.7098 7.83251 13.3417C7.83251 12.9736 7.53407 12.6752 7.16603 12.6752H5.16649C4.79845 12.6752 4.5 12.9736 4.5 13.3417ZM40.4917 12.6752C40.8597 12.6752 41.1582 12.9736 41.1582 13.3417C41.1582 13.7098 40.8598 14.0082 40.4917 14.0082H38.4922C38.1241 14.0082 37.8257 13.7097 37.8257 13.3417C37.8257 12.9736 38.124 12.6752 38.4922 12.6752H40.4917ZM8.93101 20.5962L7.19805 21.596C6.99013 21.7142 6.86149 21.9347 6.86094 22.1739C6.8604 22.413 6.9881 22.6342 7.19548 22.7533C7.40285 22.8724 7.65818 22.8713 7.86454 22.7503L9.5975 21.7505C9.80542 21.6323 9.93406 21.4118 9.93461 21.1726C9.93516 20.9335 9.80745 20.7123 9.60008 20.5932C9.39262 20.4741 9.13729 20.4752 8.93101 20.5962ZM37.7916 3.93336C38.1104 3.74926 38.5181 3.85853 38.7021 4.17729C38.8861 4.49604 38.7769 4.90368 38.4581 5.0877L36.7251 6.08747C36.5188 6.20846 36.2634 6.20955 36.0561 6.09044C35.8487 5.97132 35.721 5.7502 35.7215 5.51104C35.7221 5.27188 35.8507 5.0513 36.0587 4.93313L37.7916 3.93336ZM35.8161 20.8401C35.7278 20.9933 35.704 21.1753 35.7498 21.346C35.7957 21.5167 35.9075 21.6623 36.0608 21.7506L37.7937 22.7504C38.1122 22.9314 38.5172 22.8215 38.7004 22.5043C38.8836 22.187 38.7763 21.7813 38.4603 21.596L36.7273 20.5963C36.5742 20.5077 36.3921 20.4836 36.2212 20.5293C36.0502 20.575 35.9045 20.6869 35.8161 20.8401ZM7.86454 3.93323L9.5975 4.93299C9.80542 5.05125 9.93406 5.27182 9.93461 5.51091C9.93516 5.75007 9.80745 5.97119 9.60008 6.09031C9.3927 6.20942 9.13737 6.20833 8.93101 6.08734L7.19805 5.08757C6.99013 4.96939 6.86149 4.74882 6.86094 4.50966C6.8604 4.27049 6.9881 4.04937 7.19548 3.93026C7.40285 3.81114 7.65818 3.81224 7.86454 3.93323Z" fill="#009961"/>
</g>
<defs>
<filter id="filter0_d_112_9330" x="0.5" y="0.00195312" width="44.6582" height="48" filterUnits="userSpaceOnUse" color-interpolation-filters="sRGB">
<feFlood flood-opacity="0" result="BackgroundImageFix"/>
<feColorMatrix in="SourceAlpha" type="matrix" values="0 0 0 0 0 0 0 0 0 0 0 0 0 0 0 0 0 0 127 0" result="hardAlpha"/>
<feOffset dy="4"/>
<feGaussianBlur stdDeviation="2"/>
<feComposite in2="hardAlpha" operator="out"/>
<feColorMatrix type="matrix" values="0 0 0 0 0 0 0 0 0 0 0 0 0 0 0 0 0 0 0.25 0"/>
<feBlend mode="normal" in2="BackgroundImageFix" result="effect1_dropShadow_112_9330"/>
<feBlend mode="normal" in="SourceGraphic" in2="effect1_dropShadow_112_9330" result="shape"/>
</filter>
</defs>
</svg>
