<svg width="97" height="97" viewBox="0 0 97 97" fill="none" xmlns="http://www.w3.org/2000/svg">
<g id="34" opacity="0.3">
<path id="Fill 265" fill-rule="evenodd" clip-rule="evenodd" d="M67.3059 22.7434L66.7495 23.2998C66.4465 23.3401 66.4075 22.9591 66.1247 22.9364C66.0098 23.0394 65.8936 23.1436 65.721 23.2985C65.8552 23.6858 66.1436 24.1544 65.5677 24.481C65.3535 24.6132 65.2669 24.2514 65.0859 24.3197C64.736 24.4964 64.7014 24.8226 64.5899 25.2024C63.8225 25.0736 63.1332 25.5481 62.3428 25.5362C61.959 25.3035 61.7495 24.8239 61.2089 24.7612C61.0395 24.7417 60.7715 24.4227 60.7765 24.247C60.7916 23.7079 60.188 23.7756 60.0982 23.507C59.9653 23.1102 59.6504 23.0057 59.4974 22.7493C59.1595 22.8888 59.203 23.1011 59.2102 23.4213C58.5493 22.8189 57.8776 22.3526 57.6527 21.4702C57.7633 21.3326 57.8839 21.1824 58.0583 20.9639C57.7066 20.7633 57.7652 20.301 57.4802 20.0374C57.0113 19.6026 56.7455 19.0553 56.6057 18.4564C56.4895 17.9554 56.1327 17.6616 55.7993 17.3174C55.821 16.8076 55.844 16.2864 55.867 15.7545C55.8449 15.7564 55.9183 15.7498 56.0792 15.735C56.0987 15.5165 56.0474 15.2277 56.1611 15.0385C56.3179 14.7784 56.2398 14.4169 56.5796 14.2276C56.8179 14.095 56.9918 13.8437 57.187 13.6384C57.3501 13.4665 57.5495 13.3068 57.6483 13.1009C57.7771 12.8342 57.75 12.4708 57.9201 12.2485C58.2369 11.8347 58.6481 11.4927 59.0503 11.0906C59.6356 11.2723 60.1681 10.9218 60.6789 10.726C61.3037 10.4866 61.8421 10.6151 62.3387 10.8409C62.8451 11.0714 62.9871 11.6914 63.136 12.1868C63.3262 12.8216 63.4232 13.4961 63.2957 14.1659C64.0511 14.3419 64.7637 14.523 64.9001 15.4264C66.3001 17.0475 66.5051 19.1375 67.0924 21.0731C67.248 21.5864 66.9658 22.1809 67.3059 22.7434Z" fill="#09331B"/>
<path id="Fill 271" fill-rule="evenodd" clip-rule="evenodd" d="M29.7704 72.9998C29.4328 72.7133 29.1705 72.308 28.8918 72.2957C28.4343 72.2765 28.7634 71.6527 28.2989 71.7487C28.1991 72.5262 28.8541 73.1409 28.8034 73.9077C28.3896 74.0708 27.9714 74.2188 27.6256 74.152C27.3511 74.346 27.4713 74.5286 27.3873 74.7425C26.7002 74.9364 25.9665 75.2765 25.2022 75.1547C24.2351 75 23.253 74.785 22.513 74.0387C22.171 73.6935 21.8523 73.3201 21.4782 73.0134C20.2432 72.0019 19.5495 70.6186 18.8473 69.2425C18.5541 68.6678 18.3951 68.0408 18.316 67.412C18.3916 67.0965 18.6738 66.9743 18.8891 66.6997L19.5999 66.7C19.8697 66.4887 19.5722 66.1105 19.7586 65.8416C19.8735 65.6775 20.0464 65.7433 20.2048 65.7279C20.2101 65.6149 20.2158 65.5002 20.2227 65.3567C20.3657 65.4266 20.4998 65.4921 20.6343 65.5572C20.7307 65.5736 20.7442 65.5267 20.7341 65.4114C20.6604 64.5675 21.1599 64.0228 21.7553 63.5173C22.3316 63.3914 22.9286 63.5778 23.5531 63.1965C24.1964 62.8032 25.2545 63.4361 25.5344 64.1934C25.7643 64.8144 25.9176 65.4426 26.7376 65.5818C26.9653 65.6205 27.2367 65.9228 27.3249 66.164C27.5664 66.8263 28.1096 67.2826 28.4082 67.901C28.6859 68.476 29.0474 69.0126 29.299 69.5974C29.3752 69.775 29.4243 69.9469 29.5597 70.0974C30.0639 70.6576 30.1678 71.385 30.3448 72.0765C30.4575 72.5187 30.0573 72.6897 29.7704 72.9998Z" fill="#09331B"/>
<path id="Fill 273" fill-rule="evenodd" clip-rule="evenodd" d="M63.8779 65.0448C63.972 65.0375 64.081 65.0287 64.2164 65.018C64.1421 64.8587 64.0794 64.7236 64.0048 64.5627C64.7674 64.2566 64.8166 63.436 65.213 62.8575C65.3698 62.6289 65.9776 61.7768 66.1845 61.6058C66.2431 61.5579 66.3668 61.5204 66.3659 61.4798C66.3608 61.0163 66.7733 60.833 66.9746 60.5121C67.1474 60.2366 67.6985 60.3922 67.6239 59.8937C68.4014 59.8197 68.6489 59.0696 69.1716 58.6691C69.489 58.4253 69.7482 58.1063 70.0284 57.8261C70.1997 57.8261 70.3616 57.8261 70.5238 57.8258C70.5735 58.0027 70.4762 58.2348 70.7363 58.3501C71.146 58.2767 71.276 57.8053 71.6435 57.6545C72.0938 57.6261 72.4418 57.7266 72.4333 58.2792C72.4314 58.4001 72.3876 58.5472 72.4402 58.6388C72.9264 59.4953 72.3754 60.1056 71.9339 60.7178C71.4804 61.3457 71.2641 62.0583 71.0301 62.667C71.3938 63.4766 72.1864 63.5972 72.6928 64.084C73.1673 64.539 73.5257 65.1373 74.2389 65.3279C74.4083 65.3732 74.7062 65.5867 74.6536 65.8572C74.5677 66.3072 75.0025 66.6873 74.8076 67.1095C74.7201 67.2991 74.5192 67.4307 74.2348 67.4714C73.9631 67.5101 73.8513 67.1294 73.5924 67.3164C73.3899 67.4635 73.4454 67.6858 73.4725 67.8678C73.5181 68.1742 73.3156 68.3496 73.1264 68.445C72.8669 68.576 72.552 68.5981 72.261 68.6667C72.3114 69.2291 71.7622 69.0685 71.5538 69.1183C71.2647 69.1882 70.9684 69.3082 70.6648 69.3289C70.3433 69.3513 70.018 69.3302 69.6953 69.3355C69.4944 69.3387 69.3306 69.3022 69.147 69.1816C69.0157 69.0956 68.8671 69.1743 68.7953 68.8978C68.7172 68.5999 68.5235 69.0865 68.2518 68.9596C67.1651 68.4516 65.9609 68.2665 64.8522 67.7995C64.6135 67.6993 64.4721 67.5718 64.3575 67.3577C63.9676 66.6309 63.7147 65.8792 63.8779 65.0448Z" fill="#09331B"/>
<path id="Fill 277" fill-rule="evenodd" clip-rule="evenodd" d="M39.6314 45.6078C39.6072 45.2875 39.2277 45.2482 39.2809 44.9544C39.4878 44.6675 39.8635 44.6665 40.0058 44.8429C40.5355 45.5004 41.1958 45.3747 41.875 45.2907C42.0741 45.2655 42.2784 45.2866 42.4809 45.2869C42.9891 45.4802 43.0238 45.9954 43.2326 46.3931C43.1948 46.611 42.9992 46.6964 42.8644 46.833C42.6544 46.8976 42.49 46.4586 42.2409 46.799C42.1144 47.0585 42.3257 47.4159 42.4097 47.5019C42.9107 48.0136 43.2496 48.593 43.4394 49.2728C44.2229 49.56 44.2758 50.4247 44.763 50.9516C45.2784 51.5092 45.4416 52.2108 45.4752 52.9606C45.4897 53.2768 45.2265 53.3416 45.1314 53.5595C44.8492 53.2541 44.3933 53.5249 44.0985 52.851C44.1265 53.4981 44.4953 53.8417 44.1867 54.1024C43.691 54.5219 43.1774 55.0657 42.593 55.1929C42.029 55.3154 41.3208 55.8328 40.7241 55.1523C40.6813 55.1038 40.5824 55.0729 40.5153 55.0814C39.3508 55.2288 38.5022 54.4784 37.5562 54.0256C36.7989 53.6638 36.0627 53.2632 35.4521 52.647C35.1117 52.304 35.2074 51.6963 34.6831 51.5505C34.5704 51.0548 34.7814 50.5561 34.3947 50.0573C35.6659 49.9348 35.6464 48.5429 36.513 48.08C36.5904 47.8527 36.3889 47.7746 36.3584 47.613C36.364 47.3876 36.621 47.3378 36.6182 47.3438C36.8021 46.9552 36.4094 46.8837 36.5678 46.6624C36.7158 46.6239 36.7784 46.7452 36.8751 46.8286C37.2517 46.8557 37.316 46.4098 37.6236 46.3169C37.8192 46.3172 38.021 46.3175 38.2276 46.3169C38.3337 45.8361 38.0525 45.4509 37.8913 44.9855C38.2093 44.8885 38.459 44.9292 38.6848 45.1984C38.9163 45.4739 39.165 45.7542 39.6314 45.6078Z" fill="#09331B"/>
<path id="Fill 279" fill-rule="evenodd" clip-rule="evenodd" d="M28.4464 24.4772C28.7147 24.5371 28.7913 24.737 28.9792 24.6618C28.972 24.2993 28.5475 24.2181 28.432 23.9003C28.5088 23.8059 28.5787 23.7209 28.704 23.5672L29.5319 24.3951C29.2016 23.7473 30.0804 23.2117 29.6597 22.6209C29.9913 22.6924 30.1692 22.4742 30.3494 22.2594C30.4029 21.9653 30.0187 21.9282 30.0036 21.6617C30.1148 21.4057 30.3462 21.2486 30.5572 21.0641C30.8705 21.1078 30.9738 21.4164 31.1999 21.5745C31.5844 21.5862 31.9808 21.6545 32.3357 21.4136C32.3908 21.6388 32.7253 21.7509 32.7256 21.8438C32.7265 22.2585 33.2565 22.4427 33.1104 22.9201C32.975 23.3616 33.7339 23.4321 33.6123 23.9164C34.3019 23.9479 34.1313 24.7433 34.6061 25.0223C35.0385 25.2758 35.3531 25.7308 35.6972 26.075C35.9262 25.9985 35.8075 25.8615 35.8572 25.7538C36.071 25.5129 36.122 26.0124 36.3242 25.8757C36.3355 25.8133 36.3781 25.7343 36.3563 25.6811C36.0673 24.9701 35.7848 24.2442 35.086 23.8226C34.3536 23.3817 34.3101 23.4132 33.8063 22.4433C33.663 22.1678 33.1941 22.4981 33.2565 22.0182C33.2914 21.7521 32.7911 21.6687 32.9274 21.3056C32.6494 21.2291 32.4044 21.0389 32.0955 21.0707C32.0369 20.9479 32.1014 20.8695 32.1805 20.781C32.428 20.5039 32.706 20.4488 33.0194 20.6519C33.2823 20.8222 33.39 21.1812 33.7462 21.2439C34.0012 21.2892 34.0245 21.6778 34.3536 21.6529C34.432 21.6463 34.6061 21.8211 34.5967 21.8948C34.5306 22.4093 34.9541 22.3662 35.224 22.5504C35.4885 22.7305 35.7637 22.9547 35.8723 23.3619C36.0052 23.8645 36.4943 24.0896 36.9786 24.293C37.2516 24.4073 37.3108 24.122 37.5076 24.1614C37.5608 24.6775 37.9806 24.9052 38.2747 25.1886C38.4702 25.2002 38.599 25.0248 38.5823 25.0044C38.3531 24.721 38.4535 24.1708 37.9062 24.145C37.9324 23.7227 37.7683 23.2444 38.3112 22.932C38.4655 23.1525 38.6072 23.429 38.7121 23.6497C38.8267 23.8922 38.8809 24.1586 39.1092 24.3314C39.3746 24.532 39.2272 24.9496 39.5503 25.124C39.8816 25.3029 39.6854 25.5406 39.6517 25.8023C39.6171 26.0656 40.1124 26.1956 39.9984 26.5697C40.2601 26.5524 40.33 26.3295 40.4931 26.206C40.4462 25.8681 40.0696 25.7 40.1112 25.2604C40.1726 24.6145 40.0765 24.6161 39.4603 23.5584C39.2364 23.1739 39.1066 22.7349 38.9227 22.2928C39.6083 22.1854 39.92 22.6219 40.1294 23.1304C40.3051 23.5568 40.5567 23.9407 40.7501 24.3343C40.9308 24.7027 41.3896 25.062 41.1802 25.6172C41.0392 25.9906 41.4806 26.3351 41.3191 26.7398C41.1267 26.7338 40.9157 26.6985 40.7979 27.0355C41.042 27.0616 41.2775 27.0868 41.5206 27.1126C41.4299 27.4785 41.2064 27.6486 40.8241 27.5969C40.9881 28.3505 40.2251 28.8313 40.291 29.5156C40.0139 29.777 39.7166 29.605 39.4256 29.6693C39.4933 29.8075 39.5585 29.9413 39.6256 30.0796C39.5894 30.2751 39.1303 30.0408 39.2512 30.4691C39.2858 30.5919 38.9917 30.8627 38.7965 30.9773C38.6444 31.0665 38.411 31.0372 38.2155 31.0287C37.9352 31.0161 37.8852 31.3653 37.6335 31.3984C37.541 30.9279 37.1218 30.9805 36.8268 30.8687C36.4014 30.7072 36.2291 31.4462 35.6264 31.1269C35.5807 31.0957 35.7681 30.7837 35.5452 30.7421C34.7321 30.5897 34.2604 29.7911 33.4435 29.6526C33.3784 29.6415 33.3362 29.5105 33.2685 29.4939C32.7879 29.3748 33.1393 28.4345 32.3823 28.6002C32.0674 28.2853 31.6464 28.0223 31.4622 27.6435C31.1769 27.0566 30.7424 26.6283 30.3056 26.1827C30.253 26.1295 30.1809 26.0945 30.0952 26.0353C29.8991 26.1755 30.0256 26.3833 30.0168 26.5471C30.0108 26.6607 30.2744 26.7265 30.0808 26.9719C29.3587 26.2599 28.5252 25.655 28.4464 24.4772Z" fill="#09331B"/>
<path id="Fill 283" fill-rule="evenodd" clip-rule="evenodd" d="M54.9894 38.2134C54.7973 37.9722 54.6773 37.8213 54.5744 37.6913C54.5489 37.5612 54.5942 37.5467 54.7114 37.5568C54.9063 37.5735 55.0914 37.5357 55.2555 37.7218C55.5493 38.0553 55.8894 38.3475 56.1911 38.6744C56.4354 38.9389 56.7009 39.1697 57.0677 39.1959C57.6138 39.2355 57.8313 39.6975 58.1821 39.9519C58.1469 40.6075 58.3783 41.0865 58.7272 41.6004C59.0818 42.1238 59.5683 42.5769 59.7573 43.2331C59.8353 43.5046 60.1883 43.6964 60.4085 43.9165C60.4132 44.2802 60.3584 44.6385 60.5845 44.9389L60.2274 45.296C59.8568 45.2957 59.7916 44.8476 59.46 44.7705C59.2673 44.8473 59.0698 44.9729 59.2849 45.1792C59.5151 45.4006 59.1168 45.8065 59.7828 45.8439C59.0365 46.3301 58.4152 46.6006 58.0792 47.1136C57.7973 47.3318 57.7111 46.9325 57.3984 47.0588C56.5305 47.409 55.8283 47.1697 55.162 46.5846C54.3552 45.8761 53.8322 44.9821 53.3318 44.0591C52.9501 43.3537 52.9092 42.7284 53.4776 42.0624C53.9931 41.4581 53.897 40.8683 53.3324 40.2772C53.1117 40.0464 52.8812 39.8247 52.6636 39.6071C52.713 39.3102 52.9353 39.5331 53.0188 39.444C53.3478 39.3171 53.0295 38.8507 53.4357 38.7569C53.6942 38.7163 53.7138 39.1319 53.9994 39.1083C54.0148 39.0494 54.0642 38.9572 54.0419 38.9342C53.7972 38.68 53.8781 38.2546 53.5462 38.0342C53.4565 37.9747 53.6152 37.833 53.6961 37.7464C53.9487 37.679 54.0327 37.9067 54.1722 38.0285C54.3212 38.158 54.4538 38.3056 54.5448 38.3966C54.7765 38.4653 54.8162 38.3091 54.9894 38.2134Z" fill="#09331B"/>
</g>
</svg>
