<svg width="16" height="16" viewBox="0 0 16 16" fill="none" xmlns="http://www.w3.org/2000/svg">
<path id="Vector" d="M8 0.0078125C3.58879 0.0078125 0 3.59661 0 8.00781C0 12.419 3.58879 16.0078 8 16.0078C12.4112 16.0078 16 12.419 16 8.00781C16 3.59658 12.4112 0.0078125 8 0.0078125ZM8 15.0078C4.1402 15.0078 1 11.8676 1 8.00781C1 4.14802 4.1402 1.00782 8 1.00782C11.8598 1.00782 15 4.14798 15 8.00781C15 11.8676 11.8598 15.0078 8 15.0078ZM12.4375 8.00781C12.4375 8.28397 12.2136 8.50781 11.9375 8.50781H8.5V11.9453C8.5 12.2215 8.27613 12.4453 8 12.4453C7.72387 12.4453 7.5 12.2215 7.5 11.9453V8.50781H4.06248C3.78636 8.50781 3.56248 8.28397 3.56248 8.00781C3.56248 7.73166 3.78636 7.50781 4.06248 7.50781H7.5V4.0703C7.5 3.79414 7.72387 3.5703 8 3.5703C8.27613 3.5703 8.5 3.79414 8.5 4.0703V7.50781H11.9375C12.2136 7.50781 12.4375 7.73169 12.4375 8.00781Z" fill="white"/>
</svg>
