<svg width="23" height="22" viewBox="0 0 23 22" fill="none" xmlns="http://www.w3.org/2000/svg">
<g id="Icon">
<path id="Vector" d="M10.5414 21.0904C4.72929 21.0904 0 16.3613 0 10.5492C0 4.7371 4.72929 0.0078125 10.5414 0.0078125C12.5625 0.0078125 14.5288 0.583707 16.2279 1.67426C16.5614 1.88903 16.6592 2.33368 16.4444 2.66812C16.2289 3.00257 15.7852 3.09925 15.4507 2.88465C13.9845 1.94255 12.2865 1.44527 10.5414 1.44527C5.52171 1.44527 1.43746 5.52952 1.43746 10.5492C1.43746 15.5687 5.52171 19.653 10.5414 19.653C15.5609 19.653 19.6452 15.5687 19.6452 10.5492C19.6452 10.2492 19.6308 9.95209 19.6031 9.65993C19.5648 9.26407 19.8542 8.9133 20.249 8.87505C20.6457 8.83855 20.9954 9.12615 21.0338 9.52096C21.0663 9.85926 21.0826 10.2023 21.0826 10.5492C21.0826 16.3613 16.3535 21.0904 10.5414 21.0904Z" fill="white"/>
<path id="Vector_2" d="M11.7392 12.9443C11.5553 12.9443 11.3713 12.8743 11.2314 12.7336L6.91906 8.42122C6.63831 8.14029 6.63831 7.68512 6.91906 7.40437C7.19981 7.12361 7.65498 7.12361 7.93574 7.40437L11.7403 11.2089L21.7727 1.17639C22.0536 0.895632 22.5088 0.895632 22.7895 1.17639C23.0703 1.45714 23.0703 1.91231 22.7895 2.19306L12.2481 12.7345C12.1072 12.8743 11.9233 12.9443 11.7392 12.9443Z" fill="white"/>
</g>
</svg>
