<svg width="53" height="50" viewBox="0 0 53 50" fill="none" xmlns="http://www.w3.org/2000/svg">
<path d="M49.6381 14.6551H41.8795C40.7924 14.6551 39.8114 15.3447 39.4372 16.3775L34.676 29.881L33.5165 30.3025L34.0682 23.1336C35.0967 22.7913 35.845 21.831 35.845 20.6896C35.845 19.8672 35.4519 19.1422 34.8519 18.668L35.9295 16.8016C36.1674 16.3887 36.026 15.862 35.6139 15.6241L33.3743 14.3309L37.3364 7.468C37.4889 7.49644 37.6407 7.52834 37.7958 7.52834C38.0208 7.52834 38.2467 7.49903 38.4691 7.43868C39.1364 7.26024 39.6941 6.83265 40.0398 6.23437L40.9019 4.74126C41.1398 4.32833 40.9984 3.80161 40.5864 3.56367L34.6139 0.11539C34.4157 0.000734372 34.1795 -0.029438 33.9596 0.0291828C33.7389 0.0878036 33.5501 0.232632 33.4363 0.430908L32.5743 1.92402C32.2286 2.52143 32.1372 3.21885 32.3157 3.88609C32.4941 4.55333 32.9226 5.11109 33.52 5.45592L35.7596 6.74903L29.7251 17.2008C29.6105 17.3999 29.4243 17.543 29.2018 17.6034C28.9794 17.6611 28.7475 17.6318 28.5475 17.5163C28.1355 17.2792 27.9941 16.7499 28.232 16.3387L33.1424 7.83438C33.3803 7.42144 33.2389 6.89472 32.8269 6.65679C32.4131 6.41885 31.8872 6.55937 31.6493 6.9723L28.8941 11.7439L26.6544 10.4508C26.457 10.3378 26.2217 10.3077 26.0001 10.3646C25.7794 10.4232 25.5906 10.568 25.4768 10.7663L24.1682 13.0327C24.0475 12.9715 23.9156 12.9309 23.776 12.9309H19.4656V10.3447H20.3277C22.7044 10.3447 24.638 8.4111 24.638 6.03437C24.638 5.55765 24.2518 5.1723 23.776 5.1723H21.1898C19.9311 5.1723 18.8398 5.85678 18.2372 6.86627C17.6354 6.35506 16.8673 6.03437 16.0173 6.03437H13.4311C12.9553 6.03437 12.569 6.41972 12.569 6.89644C12.569 9.27317 14.5027 11.2068 16.8794 11.2068H17.7415V12.9309H15.2122C14.8449 12.3715 14.357 11.9016 13.7691 11.562C12.7708 10.987 11.6104 10.8318 10.4984 11.1318C9.38628 11.4301 8.45697 12.143 7.88111 13.1396L7.71645 13.4249L6.438 11.4887L5.84317 9.26886C5.74834 8.91455 5.43886 8.65851 5.07248 8.63265C3.01558 8.48007 1.13368 9.82662 0.611262 11.8275L0.528503 12.1447C0.429365 12.5197 0.594882 12.9146 0.93109 13.1094L2.90868 14.2508L4.41386 18.1034H3.94834C2.52247 18.1034 1.36213 19.2637 1.36213 20.6896C1.36213 22.1154 2.52247 23.2758 3.94834 23.2758H4.24231L4.7242 24.3999C7.11473 29.9775 11.7544 34.2224 17.4242 36.1543L14.2311 37.3155C12.7622 35.5388 10.5742 34.4827 8.25869 34.4827C6.87938 34.4827 5.51817 34.8551 4.32162 35.5586C3.91127 35.8 3.7742 36.3293 4.01644 36.7388C4.25782 37.1508 4.78541 37.2879 5.19662 37.0448C6.12765 36.4965 7.18628 36.2069 8.25869 36.2069C9.84835 36.2069 11.3604 36.85 12.4811 37.9508L10.6035 38.6336C9.92766 38.1931 9.12421 37.931 8.25869 37.931C5.88196 37.931 3.94834 39.8646 3.94834 42.2414C3.94834 44.6181 5.88196 46.5517 8.25869 46.5517C10.1932 46.5517 11.8156 45.2621 12.3587 43.5034L14.2647 42.8103C13.9768 45.8715 11.394 48.2759 8.25869 48.2759C4.9311 48.2759 2.2242 45.5681 2.2242 42.2414C2.2242 41.1698 2.51385 40.1103 3.06213 39.1784C3.30351 38.7681 3.16644 38.2396 2.75609 37.9982C2.34661 37.7569 1.8173 37.8931 1.57592 38.3043C0.872469 39.5008 0.500054 40.862 0.500054 42.2414C0.500054 46.5198 3.9811 50 8.25869 50C12.5363 50 16.0173 46.5198 16.0173 42.2414C16.0173 42.2181 16.0156 42.1965 16.0147 42.1733L23.2561 39.5396L30.3251 48.9638C30.8096 49.6129 31.5838 50 32.3967 50C32.582 50 32.7682 49.9776 32.9794 49.9353C33.9777 49.7034 34.7476 48.9034 34.9424 47.8914L35.8303 43.1319C35.9182 42.6638 35.6088 42.2138 35.1415 42.1258C34.6717 42.0431 34.2234 42.3483 34.1355 42.8155L33.2484 47.5698C33.1829 47.9095 32.9251 48.1776 32.6148 48.25C32.27 48.3215 31.9113 48.206 31.707 47.9319L24.9493 38.9241L26.6449 38.3077L30.7346 43.7603C30.8993 43.981 31.1562 44.1052 31.4243 44.1052C31.4889 44.1052 31.5544 44.0974 31.62 44.0827C31.9527 44.0052 32.2088 43.7388 32.2717 43.4026L33.7088 35.7379L35.595 35.0517L34.7734 39.4267C34.6855 39.8948 34.9932 40.3448 35.4613 40.4327C35.5148 40.4431 35.5691 40.4482 35.6217 40.4482C36.0286 40.4482 36.3907 40.1595 36.4682 39.7457L37.4786 34.3672L37.5795 34.3301C38.3131 34.0724 38.8855 33.5017 39.1493 32.7612L40.9424 27.6836C41.101 27.2344 40.8657 26.7422 40.4165 26.5836C39.9657 26.4267 39.4752 26.6611 39.3165 27.1094L37.5243 32.1844C37.4364 32.4293 37.2484 32.6189 36.9984 32.7069L12.5061 41.6155C12.419 41.0258 12.2182 40.4767 11.9173 39.9896L35.6484 31.362C35.8907 31.2741 36.0812 31.0818 36.1665 30.8387L41.0605 16.9577C41.1881 16.6068 41.5096 16.3792 41.8795 16.3792H49.6381C50.1131 16.3792 50.5002 16.7654 50.5002 17.2413C50.5002 17.7172 50.1131 18.1034 49.6381 18.1034H43.1036C42.7381 18.1034 42.4122 18.3344 42.2907 18.6784L40.4631 23.8508C40.3045 24.2999 40.5398 24.7922 40.9889 24.9499C41.4372 25.1103 41.9303 24.8741 42.089 24.4249L43.7131 19.8275H49.6381C51.064 19.8275 52.2243 18.6672 52.2243 17.2413C52.2243 15.8154 51.064 14.6551 49.6381 14.6551ZM21.1898 6.89644H22.7665C22.4105 7.89989 21.4518 8.62058 20.3277 8.62058H19.4656C19.4656 7.66972 20.2389 6.89644 21.1898 6.89644ZM16.8794 9.48266C15.7553 9.48266 14.7966 8.76196 14.4406 7.75851H16.0173C16.9682 7.75851 17.7415 8.53179 17.7415 9.48266H16.8794ZM33.9812 3.4404C33.9217 3.21798 33.9519 2.98609 34.0674 2.78609L34.4984 2.03953L38.9777 4.62575L38.5467 5.3723C38.4312 5.57144 38.245 5.71368 38.0234 5.77402C37.8019 5.83178 37.5691 5.80334 37.37 5.68696L34.3829 3.96281C34.1829 3.84816 34.0407 3.66281 33.9812 3.4404ZM32.5122 15.8241L34.0053 16.6861L33.1872 18.1034H31.1915C31.2001 18.0896 31.2113 18.0784 31.22 18.0637L32.5122 15.8241ZM26.5398 12.3758L28.032 13.2378L26.7389 15.4775C26.2518 16.3215 26.307 17.3223 26.7768 18.1034H23.9311L24.2148 16.4025L26.5398 12.3758ZM22.1837 18.1034H15.0234L14.4484 14.6551H22.7579L22.1837 18.1034ZM8.94318 14.749L13.1182 17.1594L13.2759 18.1034H7.00697L8.94318 14.749ZM12.907 13.0551C12.9259 13.0663 12.9432 13.0809 12.9613 13.0921C12.8958 13.1361 12.8251 13.174 12.7725 13.2361C12.6087 13.4301 12.5389 13.6853 12.5803 13.9353L12.7501 14.9568L9.93284 13.3301C10.744 12.6387 11.9337 12.493 12.907 13.0551ZM5.76127 16.812L4.6242 13.9016L5.08024 13.4973L5.47076 13.1516L6.75352 15.0947L5.76127 16.812ZM4.35524 10.3775L4.67075 11.5551L3.49489 12.5982L2.38109 11.9551C2.7173 11.1154 3.47334 10.5189 4.35524 10.3775ZM6.30869 23.7215L6.11731 23.2758H14.2932C14.7691 23.2758 15.1553 22.8904 15.1553 22.4137C15.1553 21.937 14.7691 21.5517 14.2932 21.5517H3.94834C3.47334 21.5517 3.08627 21.1654 3.08627 20.6896C3.08627 20.2137 3.47334 19.8275 3.94834 19.8275H33.2588C33.7338 19.8275 34.1208 20.2137 34.1208 20.6896C34.1208 21.1654 33.7338 21.5517 33.2588 21.5517H17.7415C17.2656 21.5517 16.8794 21.937 16.8794 22.4137C16.8794 22.8904 17.2656 23.2758 17.7415 23.2758H32.3277L31.7372 30.95L20.2191 35.1379C14.0027 33.8129 8.81214 29.5629 6.30869 23.7215ZM8.25869 44.8276C6.83283 44.8276 5.67248 43.6672 5.67248 42.2414C5.67248 40.8155 6.83283 39.6551 8.25869 39.6551C9.68456 39.6551 10.8449 40.8155 10.8449 42.2414C10.8449 43.6672 9.68456 44.8276 8.25869 44.8276ZM30.9381 41.1577L28.3381 37.6913L31.826 36.4224L30.9381 41.1577Z" fill="white"/>
</svg>
