<svg width="50" height="51" viewBox="0 0 50 51" fill="none" xmlns="http://www.w3.org/2000/svg">
<path d="M49.3454 8.22266L25.2099 0.732348C25.0461 0.69078 24.8744 0.69078 24.7106 0.732348L0.57515 8.22266C0.399783 8.2776 0.247531 8.38903 0.142145 8.53958C0.0367591 8.69013 -0.0158339 8.87133 -0.00742961 9.05491V42.3452C-0.0158339 42.5287 0.0367591 42.7099 0.142145 42.8605C0.247531 43.011 0.399783 43.1225 0.57515 43.1774L24.7106 50.6677C24.8741 50.7123 25.0465 50.7123 25.2099 50.6677L49.3454 43.1774C49.5207 43.1225 49.673 43.011 49.7784 42.8605C49.8838 42.7099 49.9364 42.5287 49.928 42.3452V9.05491C49.9364 8.87133 49.8838 8.69013 49.7784 8.53958C49.673 8.38903 49.5207 8.2776 49.3454 8.22266ZM42.4376 38.6916V33.9311C45.4754 33.3402 47.814 29.5534 48.2052 24.6348H48.2634V41.0968L42.4376 38.6916ZM48.2634 22.8787C48.2545 20.764 47.8215 18.6727 46.9901 16.7283L48.2718 17.1361L48.2634 22.8787ZM46.5989 23.2033C46.5989 27.6475 44.768 31.4593 42.4376 32.2166V28.4881L45.5836 24.5515L44.2853 23.5195L42.4376 25.8249V19.042H40.7731V25.8249L38.9255 23.5195L37.6272 24.5515L40.7731 28.4881V32.2166C38.4428 31.4593 36.6119 27.6475 36.6119 23.2033C36.6119 18.2097 38.9006 14.0485 41.6054 14.0485C44.3102 14.0485 46.5989 18.2097 46.5989 23.2033ZM35.4717 18.9338L25.7925 15.9293V10.1868L38.0766 13.9902C36.7904 15.3815 35.8921 17.0863 35.4717 18.9338ZM24.128 15.9293L14.4489 18.9338C14.0284 17.0863 13.1301 15.3815 11.8439 13.9902L24.128 10.1868V15.9293ZM13.3087 23.2033C13.3087 27.6475 11.4777 31.4593 9.14739 32.2166V28.4881L12.2933 24.5515L10.995 23.5195L9.14739 25.8249V19.042H7.48288V25.8249L5.63527 23.5195L4.33695 24.5515L7.48288 28.4881V32.2166C5.15256 31.4593 3.3216 27.6475 3.3216 23.2033C3.3216 18.2097 5.6103 14.0485 8.31513 14.0485C11.02 14.0485 13.3087 18.2097 13.3087 23.2033ZM1.65708 22.9037V17.1611L2.93876 16.7533C2.10447 18.6971 1.66865 20.7884 1.65708 22.9037ZM1.65708 24.6514H1.71534C2.1065 29.5534 4.44514 33.3402 7.48288 33.9311V38.6916L1.65708 41.0968V24.6514ZM9.14739 33.9311C12.4764 33.2819 14.9732 28.8127 14.9732 23.2033C14.9716 22.3257 14.9049 21.4494 14.7734 20.5817L24.128 17.6771V23.2033H15.8054C15.5847 23.2033 15.373 23.291 15.2169 23.447C15.0609 23.6031 14.9732 23.8148 14.9732 24.0355V29.0291C14.9732 29.2498 15.0609 29.4615 15.2169 29.6176C15.373 29.7736 15.5847 29.8613 15.8054 29.8613H16.6377V31.5258H14.9732C14.7525 31.5258 14.5408 31.6135 14.3847 31.7696C14.2286 31.9257 14.1409 32.1374 14.1409 32.3581V35.6871C14.1447 35.7643 14.1616 35.8403 14.1909 35.9118L9.14739 38.0008V33.9311ZM18.3022 31.5258V29.8613H31.6183V31.5258H18.3022ZM16.6377 28.1968V24.8678H33.2828V28.1968H16.6377ZM15.8054 34.8549V33.1903H34.1151V34.8549H15.8054ZM34.9473 31.5258H33.2828V29.8613H34.1151C34.3358 29.8613 34.5475 29.7736 34.7036 29.6176C34.8597 29.4615 34.9473 29.2498 34.9473 29.0291V24.0355C34.9473 23.8148 34.8597 23.6031 34.7036 23.447C34.5475 23.291 34.3358 23.2033 34.1151 23.2033H25.7925V17.6771L35.1471 20.5817C35.0157 21.4494 34.9489 22.3257 34.9473 23.2033C34.9473 28.8127 37.4441 33.2819 40.7731 33.9311V38.0008L35.7297 35.9118C35.7589 35.8403 35.7758 35.7643 35.7796 35.6871V32.3581C35.7796 32.1374 35.6919 31.9257 35.5358 31.7696C35.3798 31.6135 35.1681 31.5258 34.9473 31.5258ZM48.2634 15.4134L45.6918 14.5811C45.2222 13.9286 44.6102 13.3916 43.9021 13.0109C43.1941 12.6302 42.4086 12.4158 41.6054 12.3839C40.9818 12.3864 40.3659 12.5227 39.7994 12.7834L25.7925 8.43904V2.69647L48.2634 9.67078V15.4134ZM24.128 2.69647V8.43904L10.1211 12.7834C9.55462 12.5227 8.93877 12.3864 8.31513 12.3839C7.50905 12.4197 6.72181 12.6392 6.01356 13.0258C5.30532 13.4124 4.69483 13.9557 4.22876 14.6144L1.65708 15.4134V9.67078L24.128 2.69647ZM24.9603 49.0032L3.27166 42.237L16.6377 36.7025V39.0161H18.3022V36.5194H31.6183V39.0161H33.2828V36.7025L46.6489 42.237L24.9603 49.0032Z" fill="#009961"/>
</svg>
