<svg width="40" height="40" viewBox="0 0 40 40" fill="none" xmlns="http://www.w3.org/2000/svg">
<path d="M40 23.8562V16.1441L34.3633 15.0168C34.166 14.4565 33.9362 13.9082 33.675 13.3746L36.8688 8.58438L31.4164 3.13165L26.625 6.32501C26.0915 6.06378 25.5432 5.83409 24.9828 5.63712L23.8562 0H16.1438L15.0172 5.63711C14.4568 5.83408 13.9085 6.06377 13.375 6.325L8.5836 3.13164L3.13126 8.58438L6.32501 13.3746C6.06383 13.9081 5.83401 14.4565 5.63672 15.0168L0 16.1441V23.8563L5.63672 24.9828C5.83373 25.5435 6.06356 26.0921 6.325 26.6258L3.13125 31.4156L8.58438 36.8688L13.3742 33.675C13.9079 33.9364 14.4565 34.1663 15.0172 34.3633L16.1438 40H23.8563L24.9828 34.3633C25.5435 34.1663 26.0921 33.9364 26.6258 33.675L31.4156 36.8688L36.8688 31.4156L33.675 26.6258C33.9364 26.0921 34.1663 25.5435 34.3633 24.9828L40 23.8562ZM34.8094 31.2125L31.2125 34.8094L26.7289 31.8211L26.3086 32.0422C25.5863 32.4243 24.8309 32.7402 24.0516 32.9859L23.5984 33.1273L22.5438 38.4H20.8V25.7097C20.9026 25.731 21.0069 25.743 21.1117 25.7453C22.5914 25.7453 24.4367 23.993 26.0992 22.1938C27.4668 20.7095 28.5933 19.0199 29.4375 17.1867L29.9156 16.1539L28.782 16.0539C24.7711 15.7004 21.4125 17.0856 20.0086 19.6688L19.9999 19.687L19.9914 19.6692C18.5883 17.086 15.2297 15.6977 11.218 16.054L10.0844 16.154L10.5625 17.1868C11.4069 19.0203 12.5336 20.7101 13.9016 22.1945C15.5641 23.9929 17.4086 25.7453 18.8883 25.7453C18.9931 25.7429 19.0974 25.731 19.2 25.7097V38.4H17.4562L16.4016 33.1273L15.9485 32.9859C15.1692 32.7402 14.4137 32.4243 13.6914 32.0422L13.2711 31.8211L8.78754 34.8094L5.19066 31.2125L8.17894 26.7289L7.95785 26.3086C7.57575 25.5863 7.25988 24.8309 7.0141 24.0516L6.87269 23.5984L1.6 22.5438V17.4559L6.87266 16.4016L7.01406 15.9485C7.25991 15.1693 7.57578 14.414 7.95782 13.6918L8.17969 13.2711L5.19062 8.78831L8.78828 5.19026L13.2711 8.17854L13.6914 7.95823C14.4138 7.57612 15.1692 7.26012 15.9484 7.01409L16.4016 6.87307L17.4562 1.6H22.5438L23.5984 6.87305L24.0515 7.01406C24.8308 7.2601 25.5862 7.5761 26.3086 7.95821L26.7289 8.17852L31.2117 5.19024L34.8093 8.78829L31.8203 13.2711L32.0422 13.6918C32.4242 14.414 32.7401 15.1693 32.9859 15.9484L33.1273 16.4016L38.4 17.4559V22.5437L33.1273 23.5984L32.9859 24.0515C32.7402 24.8308 32.4243 25.5863 32.0422 26.3086L31.8211 26.7289L34.8094 31.2125ZM21.4148 20.4324C22.3594 18.6934 24.6555 17.6387 27.4383 17.602C26.747 18.8696 25.9024 20.0473 24.9234 21.1086C21.9617 24.3125 21.1438 24.1555 21.0828 24.1422C20.7336 23.9117 20.5859 21.9586 21.4148 20.4324ZM18.9172 24.1422C18.857 24.1563 18.0375 24.3125 15.0758 21.1078C14.0971 20.0467 13.2528 18.8692 12.5617 17.6019C15.3445 17.639 17.6406 18.6937 18.5852 20.4328C19.4141 21.9586 19.2664 23.9117 18.9172 24.1422Z" fill="#009961"/>
</svg>
