<svg width="33" height="35" viewBox="0 0 33 35" fill="none" xmlns="http://www.w3.org/2000/svg">
<path d="M29.6338 29.8047H27.1352C27.0887 28.4653 26.3635 27.2958 25.293 26.6303V14.4785C25.8717 14.3951 26.3184 13.8973 26.3184 13.2959V7.55371C26.3184 6.95229 25.8717 6.45442 25.293 6.37109V2.05078C25.293 0.91998 24.373 0 23.2422 0C23.2039 0 5.98145 0 5.98145 0C2.68324 0 0 2.68324 0 5.98145V6.23561C0 6.51882 0.229482 6.7483 0.512695 6.7483C0.795908 6.7483 1.02539 6.51882 1.02539 6.23561V5.98145C1.02539 3.24864 3.24864 1.02539 5.98145 1.02539H21.4673C21.2922 1.32727 21.1914 1.6774 21.1914 2.05078V3.07617H6.32324C4.53284 3.07617 3.07617 4.53284 3.07617 6.32324V17.9443C3.07617 19.7347 4.53284 21.1914 6.32324 21.1914H14.6973C15.2627 21.1914 15.7227 21.6514 15.7227 22.2168C15.7227 22.7822 15.2627 23.2422 14.6973 23.2422H5.98145C3.24864 23.2422 1.02539 21.0189 1.02539 18.2861V8.62818C1.02539 8.34497 0.795908 8.11549 0.512695 8.11549C0.229482 8.11549 0 8.34497 0 8.62818V18.2861C0 21.5843 2.68324 24.2676 5.98145 24.2676H6.15234V27.8971C5.94289 27.8052 5.7117 27.7539 5.46875 27.7539C4.52642 27.7539 3.75977 28.5206 3.75977 29.4629V33.291C3.75977 34.2333 4.52642 35 5.46875 35C5.95964 35 6.40247 34.7917 6.71446 34.4591C7.054 34.7934 7.51939 35 8.03223 35H26.6602C26.9434 35 27.1729 34.7705 27.1729 34.4873C27.1729 34.2041 26.9434 33.9746 26.6602 33.9746H15.1416C15.0473 33.9746 14.9707 33.898 14.9707 33.8037V32.71C14.9707 31.6734 15.8141 30.8301 16.8506 30.8301H29.6338C30.6703 30.8301 31.5137 31.6734 31.5137 32.71V33.8037C31.5137 33.898 31.437 33.9746 31.3428 33.9746H29.0527C28.7695 33.9746 28.54 34.2041 28.54 34.4873C28.54 34.7705 28.7695 35 29.0527 35H31.3428C32.0024 35 32.5391 34.4633 32.5391 33.8037V32.71C32.5391 31.108 31.2358 29.8047 29.6338 29.8047ZM26.1098 29.8047H20.3746C20.4462 28.2848 21.7049 27.0703 23.2422 27.0703C24.7795 27.0703 26.0382 28.2848 26.1098 29.8047ZM23.2422 26.0449C22.8873 26.0449 22.5438 26.0935 22.2168 26.1828V14.4922H24.2676V26.1828C23.9406 26.0935 23.597 26.0449 23.2422 26.0449ZM25.293 13.2959C25.293 13.3902 25.2163 13.4668 25.1221 13.4668H21.3623C21.268 13.4668 21.1914 13.3902 21.1914 13.2959V7.55371C21.1914 7.45944 21.268 7.38281 21.3623 7.38281H25.1221C25.2163 7.38281 25.293 7.45944 25.293 7.55371V13.2959ZM24.2676 2.05078V6.35742H22.2168V2.05078C22.2168 1.48538 22.6768 1.02539 23.2422 1.02539C23.8076 1.02539 24.2676 1.48538 24.2676 2.05078ZM4.10156 17.9443V6.32324C4.10156 5.09817 5.09817 4.10156 6.32324 4.10156H21.1914V6.37109C20.6127 6.45449 20.166 6.95229 20.166 7.55371V13.2959C20.166 13.8973 20.6127 14.3952 21.1914 14.4785V18.6489C19.5825 16.7738 17.2083 15.6543 14.6973 15.6543C11.5229 15.6543 8.65648 17.3778 7.16338 20.166H6.32324C5.09817 20.166 4.10156 19.1694 4.10156 17.9443ZM5.46875 33.9746C5.09182 33.9746 4.78516 33.6679 4.78516 33.291V29.4629C4.78516 29.086 5.09182 28.7793 5.46875 28.7793C5.84568 28.7793 6.15234 29.086 6.15234 29.4629V33.291C6.15234 33.6679 5.84568 33.9746 5.46875 33.9746ZM7.17773 33.1201V24.2676H14.6973C15.8281 24.2676 16.748 23.3476 16.748 22.2168C16.748 21.086 15.8281 20.166 14.6973 20.166H8.34935C9.72303 17.9984 12.0924 16.6797 14.6973 16.6797C17.3583 16.6797 19.8455 18.1074 21.1914 20.4062V26.6302C20.4375 27.0989 19.8551 27.8175 19.56 28.6694C19.0876 28.1107 18.3827 27.7539 17.6025 27.7539H11.792C10.3785 27.7539 9.22852 28.9038 9.22852 30.3174V33.9746H8.03223C7.56103 33.9746 7.17773 33.5913 7.17773 33.1201ZM14.0738 31.8555H12.3047V30.8301H14.6381C14.3856 31.1268 14.1913 31.4743 14.0738 31.8555ZM12.1338 29.8047C11.6626 29.8047 11.2793 30.188 11.2793 30.6592V32.0264C11.2793 32.4976 11.6626 32.8809 12.1338 32.8809H13.9453V33.8037C13.9453 33.8619 13.9509 33.9186 13.959 33.9746H10.2539V30.3174C10.2539 29.4693 10.9439 28.7793 11.792 28.7793H17.6025C18.2658 28.7793 18.8382 29.2092 19.0514 29.8047H12.1338Z" fill="white"/>
</svg>
