<svg width="20" height="18" viewBox="0 0 20 18" fill="none" xmlns="http://www.w3.org/2000/svg">
<g id="Chacek">
<path id="Vector" fill-rule="evenodd" clip-rule="evenodd" d="M5.35182 7.81312C7.31412 9.06188 8.70566 11.7735 9.24084 12.9688C10.6613 9.54458 12.801 6.89451 14.8701 4.93961C14.8983 4.87236 14.957 4.82035 15.0252 4.79429C15.4847 4.36699 15.9397 3.97379 16.3815 3.61434C16.4142 3.56263 16.4651 3.522 16.5227 3.50019C17.7557 2.51039 18.8774 1.78391 19.6947 1.30176C14.6818 2.42564 11.221 6.63575 9.54407 9.18681C9.43893 9.33642 9.20249 9.32716 9.11596 9.16899C8.61646 8.33059 7.17143 6.24331 6.06541 6.24331C6.01187 6.24331 5.95839 6.24332 5.90486 6.26118C5.13779 6.42167 4.9772 6.76068 4.90585 7.08172C4.83446 7.38506 4.88799 7.50989 5.35182 7.81312Z" fill="#09331B"/>
<path id="Vector_2" fill-rule="evenodd" clip-rule="evenodd" d="M8.99102 16.555C4.83444 16.555 1.44498 13.1655 1.44498 9.00888C1.44498 4.8523 4.83444 1.46279 8.99102 1.46279C10.8994 1.46279 12.7083 2.17531 14.0984 3.4566C14.4905 3.15787 14.9003 2.87159 15.328 2.60291C13.6382 0.920328 11.405 0 8.99102 0C4.0317 0.0177599 0 4.04951 0 9.00888C0 13.9682 4.0317 18 8.99112 18C13.9505 18 17.9822 13.9682 17.9822 9.00888C17.9822 7.27392 17.4891 5.60272 16.5631 4.14514C16.2025 4.44241 15.8336 4.76234 15.4614 5.10544C18.4276 9.96741 14.9611 16.555 8.99102 16.555Z" fill="#009961"/>
</g>
</svg>
