<svg width="20" height="35" viewBox="0 0 20 35" fill="none" xmlns="http://www.w3.org/2000/svg">
<path d="M19.1877 22.7536H17.627C17.7896 22.6279 17.9457 22.4914 18.0939 22.3433H18.094C20.7475 19.6896 19.6604 14.5035 19.6129 14.2841C19.5561 14.0221 19.3516 13.8176 19.0897 13.7608C18.8703 13.7133 13.6842 12.626 11.0306 15.2798C10.8824 15.428 10.7459 15.5841 10.6203 15.7467V12.0883C11.8193 11.2837 15.736 8.5938 16.6605 7.18792C17.1146 6.49701 17.6264 5.52535 17.5518 4.13308C17.4929 3.0327 17.027 1.99951 16.2401 1.22377C15.4392 0.434629 14.3928 0 13.2936 0C11.8309 0 10.6193 1.0029 9.9471 1.7096C9.29044 0.999004 8.09729 0 6.57924 0C5.48008 0 4.43384 0.434629 3.63315 1.22384C2.8462 1.99951 2.38033 3.0327 2.3214 4.13314C2.24607 5.54442 2.79431 6.55279 3.21329 7.18867C4.12903 8.57808 8.03577 11.2623 9.25298 12.0794V15.7467C9.12733 15.584 8.99082 15.428 8.84268 15.2798C6.18897 12.626 1.00302 13.7132 0.783523 13.7607C0.521638 13.8175 0.317038 14.0221 0.2603 14.284C0.212722 14.5035 -0.874397 19.6894 1.77925 22.3432H1.77931C1.92745 22.4913 2.08351 22.6278 2.24614 22.7535H0.685427C0.307878 22.7535 0.0018333 23.0596 0.0018333 23.4371V26.887C0.0018333 27.2645 0.307878 27.5706 0.685427 27.5706H1.38351L3.2958 34.4983C3.37762 34.7947 3.6473 35 3.95478 35H15.9184C16.2259 35 16.4956 34.7947 16.5774 34.4983L18.4897 27.5706H19.1878C19.5653 27.5706 19.8714 27.2645 19.8714 26.887V23.4371C19.8713 23.0596 19.5653 22.7536 19.1877 22.7536ZM11.9973 16.2466C13.7317 14.5121 17.1361 14.8367 18.3539 15.0198C18.5372 16.2384 18.8614 19.6422 17.1272 21.3765C15.3927 23.1109 11.9882 22.7863 10.7706 22.6032C10.7087 22.192 10.6308 21.532 10.6214 20.7714C10.6223 20.6794 10.6222 20.586 10.6211 20.4913C10.6364 19.0487 10.9189 17.3249 11.9973 16.2466ZM4.35496 6.43638C3.84452 5.66166 3.64464 4.99461 3.68675 4.20608C3.77049 2.64072 5.06808 1.36719 6.57924 1.36719C8.14685 1.36719 9.3562 3.14241 9.36734 3.15896C9.49189 3.3466 9.70135 3.46028 9.92659 3.46384C10.1505 3.46842 10.3647 3.35911 10.4951 3.17543C10.5079 3.15738 11.7962 1.36719 13.2936 1.36719C14.8049 1.36719 16.1026 2.64072 16.1864 4.20615C16.2286 4.99283 16.0286 5.66002 15.518 6.43686C14.8325 7.47927 11.5539 9.80984 9.94313 10.8959C8.32691 9.80663 5.03616 7.46997 4.35496 6.43638ZM1.51928 15.0199C2.73771 14.8365 6.14167 14.5123 7.87594 16.2466C8.95384 17.3244 9.2365 19.0472 9.25209 20.4894C9.25099 20.5854 9.25093 20.6801 9.25181 20.7735C9.24224 21.5334 9.16438 22.1926 9.10265 22.6032C7.88408 22.7865 4.48012 23.1107 2.74598 21.3765C1.01157 19.642 1.33607 16.2375 1.51928 15.0199ZM1.36902 24.1207H18.5042V26.2035H1.36902V24.1207ZM15.3979 33.6328H4.4752L2.80183 27.5706H17.0713L15.3979 33.6328Z" fill="white"/>
</svg>
