<svg width="38" height="40" viewBox="0 0 38 40" fill="none" xmlns="http://www.w3.org/2000/svg">
<path fill-rule="evenodd" clip-rule="evenodd" d="M6.20001 17.15L6.65001 15.7C3.85 14.85 2.84998 13.9 2.84998 13.3C2.84998 11.7 9.04999 9.45001 18.7999 9.45001C28.5499 9.45001 34.75 11.75 34.75 13.3C34.75 13.85 33.7499 14.85 30.9499 15.7L31.3999 17.15C34.6 16.15 36.25 14.9 36.25 13.35C36.25 11.35 33.4999 9.90001 29.5 9.00002L26.05 2.80001C25.1 1.09997 23.3 0 21.3 0H16.25C14.3 0 12.45 1.04999 11.5 2.80001L8.10002 9.00002C4.15 9.90001 1.35006 11.35 1.35006 13.35C1.34999 14.9 2.99998 16.15 6.20001 17.15ZM12.85 3.55C13.55 2.30003 14.85 1.55003 16.3 1.55003H21.35C22.8 1.55003 24.1 2.30003 24.8 3.55L25.85 5.39997C23.65 5.14995 21.2999 4.99995 18.85 4.99995C16.45 4.99995 14.05 5.14995 11.85 5.39997L12.85 3.55ZM10.9 7.05003C13.3 6.70005 16.05 6.50001 18.8 6.50001C21.55 6.50001 24.3 6.69999 26.7 7.05003L27.6 8.65004C24.9 8.20004 21.85 7.95002 18.8 7.95002C15.75 7.95002 12.7 8.20004 10 8.65004L10.9 7.05003ZM7.50002 16.5C7.50002 18.25 8.75 19.7 10.45 19.95C10.8 21.45 11.9 24.65 14.55 26.6499C15.05 27.05 15.7001 27.2499 16.35 27.2499H21.15C21.8 27.2499 22.45 27.05 22.95 26.6499C25.65 24.65 26.7 21.45 27.05 19.95C28.7 19.6999 30 18.25 30 16.5C30 14.8 28.8 13.4 27.25 13.05V11.55L26.7 11.5C21.85 10.55 15.75 10.55 10.9 11.5L10.3 11.6V13.1C8.70002 13.45 7.50002 14.85 7.50002 16.5ZM22.1 25.45C21.85 25.65 21.5 25.75 21.2 25.75H16.4C16.05 25.75 15.75 25.65 15.5 25.45C14.65 24.8 13.9501 24 13.45 23.15L15 22.7L15.35 22.6L15.5 22.3C15.5013 22.2974 15.5031 22.2935 15.5055 22.2885C15.5955 22.1019 16.464 20.3 18.85 20.3C21.0896 20.3 21.9922 21.8876 22.1689 22.1985C22.1855 22.2278 22.1957 22.2457 22.2 22.25L22.35 22.6L24.25 23.15C23.65 24 23 24.8 22.1 25.45ZM28.6 16.5C28.6 17.35 28.05 18.0499 27.35 18.3499V14.6499C28.05 14.95 28.6 15.7 28.6 16.5ZM25.8 12.85V19C25.7964 19.0177 25.7922 19.0402 25.787 19.0672C25.7194 19.421 25.5039 20.5492 24.9 21.85L23.35 21.4C23 20.8 22.1 19.55 20.4 19.05C20.4438 19.0281 20.4877 19.0158 20.5273 19.0046C20.5781 18.9904 20.6219 18.9781 20.65 18.9499L20.1 17.55C19.3 17.85 18.3 17.85 17.5 17.55L16.95 18.9499C16.9999 18.9749 17.0374 18.9874 17.0749 18.9999C17.1124 19.0124 17.1499 19.0249 17.2 19.05C15.45 19.5499 14.6 20.8 14.25 21.4L12.7 21.85C12.0961 20.5493 11.8806 19.4212 11.813 19.0672L11.813 19.0672L11.8075 19.0386C11.8047 19.0239 11.8022 19.011 11.8 19V12.85C16.15 12.1 21.45 12.1 25.8 12.85ZM10.3 14.65V18.35C9.55003 18.05 9.05006 17.35 9.05006 16.5C9.00002 15.7 9.54997 14.95 10.3 14.65ZM5.40003 39.95V34.15C3.29998 35.6 1.55003 37.35 1.49999 39.95H0C0 35.3588 3.99693 33.0585 7.27437 31.1723L7.4 31.1C8.89999 30.3 10.25 29.5 10.8 28.75L12.45 26.45L13.6999 27.3L12.2999 29.2999L14.3999 34.3999L18.7999 28.4L23.2 34.3999L25.2999 29.2999L23.9 27.3L25.15 26.4499L26.7999 28.7499C27.2807 29.4055 28.4109 30.0611 29.6563 30.7835L29.6563 30.7835L29.6564 30.7835L29.6566 30.7837C29.8359 30.8876 30.0175 30.993 30.1999 31.0999L30.2227 31.1131C33.5188 33.0108 37.5999 35.3605 37.5999 39.95H36.1C36.1 37.35 34.3499 35.6 32.25 34.15V39.95H30.75V33.2C30.5226 33.0737 30.2952 32.9473 30.0678 32.821L30.0187 32.7938L29.4 32.45C29.2749 32.375 29.1373 32.2999 28.9997 32.2249C28.8623 32.1499 28.7249 32.075 28.6 32V40H9.04999V32C8.80004 32.15 8.55002 32.3 8.25002 32.45L7.66089 32.7773L7.57502 32.825L7.48916 32.8727L6.90003 33.2V39.95H5.40003ZM14.05 37.4L11.2 30.5C11.0342 30.6658 10.8684 30.7972 10.6742 30.9512C10.6341 30.983 10.5928 31.0157 10.55 31.05V38.45H27.05V31C26.8881 30.9028 26.7471 30.7847 26.6136 30.6728L26.6135 30.6728L26.6135 30.6727C26.5409 30.6119 26.4704 30.5528 26.4 30.5L23.55 37.4L18.8 30.9L14.05 37.4ZM18.8 21.45C17.65 21.45 17.1 21.3 17.1 21.3L16.7 22.75C16.708 22.75 16.7311 22.7551 16.7699 22.7636C16.9755 22.8085 17.6225 22.95 18.8 22.95C20.2 22.95 20.8 22.8 20.9 22.75L20.5 21.3C20.5 21.3 19.95 21.45 18.8 21.45ZM19.55 34.65C19.55 35.0642 19.2142 35.4 18.8 35.4C18.3858 35.4 18.05 35.0642 18.05 34.65C18.05 34.2358 18.3858 33.9 18.8 33.9C19.2142 33.9 19.55 34.2358 19.55 34.65ZM25.0251 14.2999C23.7751 13.5499 22.375 13.4999 21.525 13.5999V13.0499H20.025V15.4498L20.9751 15.1999C20.9751 15.1999 21.3315 15.1012 21.8588 15.0705V16.0149H23.1912V15.1724C23.5509 15.2539 23.9212 15.3876 24.2751 15.5999L25.0251 14.2999ZM12.575 14.2499C13.825 13.4999 15.175 13.4499 16.075 13.5499V12.9999H17.575V15.4499L16.625 15.1999C16.625 15.1999 16.271 15.0991 15.7412 15.0651V16.0149H14.4088V15.1544C14.0528 15.2295 13.6836 15.3532 13.325 15.5499L12.575 14.2499Z" fill="white"/>
</svg>
