<svg width="40" height="40" viewBox="0 0 40 40" fill="none" xmlns="http://www.w3.org/2000/svg">
<path d="M32.633 14.8149C32.9205 15.4728 33.0662 16.1703 33.0662 16.888C33.0662 17.6456 34.238 17.6456 34.238 16.888C34.238 16.0078 34.0593 15.1525 33.7068 14.3457L33.3303 13.4842C33.0269 12.7899 31.9532 13.2594 32.2566 13.9534L32.633 14.8149Z" fill="#009961"/>
<path d="M14.8874 30.9804C14.8874 29.9449 13.6891 29.1641 12.1 29.1641C10.5108 29.1641 9.3125 29.9449 9.3125 30.9804C9.3125 32.0159 10.5108 32.7968 12.1 32.7968C13.6891 32.7968 14.8874 32.0159 14.8874 30.9804ZM12.1 31.625C11.1136 31.625 10.4844 31.2017 10.4844 30.9804C10.4844 30.7591 11.1136 30.3359 12.1 30.3359C13.0865 30.3359 13.7157 30.7591 13.7157 30.9804C13.7157 31.2017 13.0865 31.625 12.1 31.625Z" fill="#009961"/>
<path d="M38.9075 29.7799C38.2692 28.7937 37.4586 28.1739 36.5819 27.9864V16.8887C36.5819 15.6834 36.3372 14.5123 35.8545 13.4079L34.1509 9.50951C33.7333 8.55401 33.5216 7.54077 33.5216 6.49792V4.41215C34.3042 4.39473 34.9359 3.75398 34.9359 2.96714V1.44666C34.936 0.648956 34.2871 0 33.4895 0H32.9647C32.2071 0 32.2071 1.17182 32.9647 1.17182H33.4895C33.641 1.17182 33.7642 1.2951 33.7642 1.44666V2.96722C33.7642 3.11869 33.641 3.24205 33.4895 3.24205H26.4505C26.299 3.24205 26.1757 3.11877 26.1757 2.96722V1.44666C26.1757 1.29518 26.2989 1.17182 26.4505 1.17182H29.8509C30.6084 1.17182 30.6084 0 29.8509 0H26.4505C25.6528 0 25.0038 0.648956 25.0038 1.44666V2.96722C25.0038 3.75398 25.6355 4.39473 26.4181 4.41223V6.498C26.4181 8.1741 25.7459 9.60803 25.0923 11.1036C24.2737 12.977 23.3579 14.7866 23.3579 16.8887V25.7491C22.6643 26.0658 21.9346 26.3504 21.1837 26.4997L18.8966 22.9821C19.8503 22.2056 20.5053 21.1347 20.763 19.9132C21.0613 18.4991 20.7914 17.0525 20.003 15.8398C19.2806 14.7287 18.2173 13.9708 17.0397 13.6124C16.3712 12.0129 14.937 10.8198 13.2432 10.4588C11.8576 10.1639 10.4416 10.426 9.25514 11.1973C8.09151 11.9539 7.27288 13.1434 6.9743 14.4941C6.74782 14.613 6.53158 14.7482 6.32565 14.8994C4.97626 14.6309 3.56272 14.8983 2.4059 15.6504C-0.0429034 17.2426 -0.737483 20.5336 0.857371 22.9867C1.00361 23.2116 1.16673 23.4253 1.34399 23.6248C1.13478 24.9092 1.38383 26.273 2.14802 27.4484C2.92384 28.6417 4.11254 29.4638 5.4767 29.7754C5.39397 30.167 5.40921 30.9559 5.40921 30.9559C5.40921 30.9559 5.37749 34.3588 5.41319 34.664C5.53365 35.6942 6.03113 36.7002 6.81407 37.4964C8.68274 39.3971 11.6102 40.0002 14.1795 40C17.8966 39.9999 21.5097 38.6919 24.6942 36.8475C24.9409 37.6227 25.5314 38.3359 26.4181 38.9097C27.4872 39.6015 28.8641 39.9983 30.1956 39.9983C32.151 39.9983 33.6742 39.1228 34.3528 37.7363C34.8616 37.9754 35.4287 38.1006 36.0141 38.1006C38.3587 38.1006 39.9962 36.2324 39.9962 33.5574C39.9962 32.2259 39.5994 30.8491 38.9075 29.7799ZM32.3499 4.41379V6.49792C32.3499 8.00458 32.791 9.40178 33.4153 10.7521H26.5247C27.149 9.40171 27.5901 8.00458 27.5901 6.49792V4.41379H32.3499ZM25.1591 13.8771L26.0126 11.9239H33.9274C34.6308 13.5336 35.4102 15.0815 35.4102 16.8887V27.9954C34.6198 28.1778 33.8774 28.7149 33.2746 29.5544C32.7157 30.3329 32.3145 31.3325 32.1363 32.3649C31.6835 32.1972 31.1838 32.0896 30.6459 32.0511C31.1696 31.3633 31.5898 30.5863 31.5461 29.8111L31.5491 26.4135C31.5491 25.7846 31.3078 25.2429 30.813 24.8387C29.4854 23.7541 27.3858 23.8685 24.5724 25.1785L24.5297 16.8887C24.5297 15.846 24.7415 14.8328 25.1591 13.8771ZM9.89378 12.1798C10.8174 11.5792 11.9201 11.375 12.9989 11.605C14.0701 11.8332 14.9899 12.4626 15.5923 13.3776C14.3527 13.3457 13.0875 13.7655 12.1147 14.5359C10.9572 13.8985 9.62434 13.715 8.36642 13.9858C8.68633 13.2536 9.21428 12.6216 9.89378 12.1798ZM3.04462 16.6329C3.69787 16.2081 4.45643 15.9826 5.225 15.9703C4.41167 17.0274 4.00669 18.365 4.12246 19.728C3.09962 20.2742 2.25192 21.1778 1.76889 22.2325C0.620428 20.3345 1.17556 17.8481 3.04462 16.6329ZM3.1304 26.8097C1.72546 24.6487 2.62378 21.6389 4.98977 20.6092C5.2364 20.5018 5.37835 20.2402 5.33374 19.9749C5.05399 18.3085 5.78614 16.6381 7.19897 15.7195C8.61446 14.7994 10.4402 14.8094 11.8507 15.7449C12.0766 15.8949 12.3759 15.8702 12.5742 15.6852C14.4701 13.9168 17.6075 14.3052 19.0205 16.4784C19.6386 17.4291 19.8502 18.563 19.6165 19.6713C19.3827 20.7791 18.7319 21.7287 17.7838 22.3451C17.5026 22.5679 17.4453 22.8381 17.6119 23.1557L19.888 26.6564C18.4015 26.7328 16.9204 26.5066 15.4527 26.3035C15.8537 25.8251 16.1338 25.2522 16.2666 24.6232C16.4229 23.8819 15.2763 23.6403 15.1199 24.3814C15.0129 24.8888 14.7676 25.3431 14.4141 25.7039L12.8074 23.2328C13.8002 22.4298 14.4826 21.3189 14.7504 20.0497C14.9067 19.3082 13.7601 19.067 13.6037 19.8078C13.4009 20.7695 12.8964 21.6158 12.1639 22.243L10.377 19.4945C9.96401 18.8593 8.98155 19.4981 9.3945 20.1332L11.1815 22.8818C10.311 23.2967 9.33294 23.4145 8.37158 23.2097C7.63091 23.0511 7.38647 24.198 8.12745 24.3558C9.3606 24.6186 10.7014 24.4468 11.8252 23.8718L13.2406 26.0487C12.4388 25.9877 11.6301 25.9735 10.8198 26.0534C8.58188 26.2743 6.74954 27.2508 5.90723 28.6681C4.76783 28.4555 3.77014 27.7936 3.1304 26.8097ZM23.8916 35.9581C21.4819 37.331 17.9822 38.8284 14.1803 38.8282C11.4524 38.8279 6.9725 37.91 6.57697 34.5278C6.55127 34.3081 6.57673 33.9234 6.58095 33.6495C7.82074 35.0878 9.71012 35.8341 11.5361 36.1714C12.2809 36.309 12.4941 35.1567 11.749 35.0191C10.5256 34.793 8.82117 34.2734 7.6495 33.0818C6.70782 32.1242 6.1812 30.5282 6.90055 29.2893C7.5356 28.1956 9.08139 27.4025 10.9348 27.2196C12.7102 27.0445 14.4945 27.3598 16.2483 27.5963C17.9848 27.8303 19.9979 28.0377 21.912 27.5356C23.0189 27.2451 24.0358 26.721 25.0673 26.2406C27.4048 25.152 29.1352 24.9811 30.0717 25.7462C30.9894 26.4954 29.5668 27.9633 29.0993 28.4735C27.9393 29.7394 26.1386 31.0851 23.8918 32.3651C20.8084 34.1217 17.6388 35.1094 14.7256 35.2214C13.9851 35.2499 14.0475 36.4212 14.7706 36.3923C17.871 36.2731 21.2256 35.2326 24.4719 33.3833C26.63 32.1537 28.771 30.7148 30.3774 28.7938L30.3717 29.8261C30.4338 30.3236 30.0057 31.0774 29.0993 32.0665C29.0993 32.0665 27.4188 32.3648 26.4183 33.1231C25.4503 33.8568 24.7711 34.6272 24.6076 35.5381C24.3728 35.6792 24.134 35.8201 23.8916 35.9581ZM30.1956 38.8265C27.9026 38.8265 25.7347 37.4608 25.7347 36.0163C25.7347 34.5719 27.9026 33.2063 30.1956 33.2063C32.2122 33.2063 33.5671 34.3356 33.5671 36.0163C33.5672 37.6972 32.2123 38.8265 30.1956 38.8265ZM36.0141 36.9287C35.5335 36.9287 35.0918 36.8158 34.6983 36.5959C34.7245 36.408 34.739 36.215 34.739 36.0164C34.739 34.7348 34.1796 33.6653 33.2363 32.9582C33.4521 30.8893 34.7328 29.0969 36.0141 29.0969C37.4586 29.0969 38.8244 31.2646 38.8244 33.5575C38.8244 35.5739 37.6951 36.9287 36.0141 36.9287Z" fill="#009961"/>
<path d="M31.5474 34.1256C30.8653 33.7958 30.3553 34.8506 31.0372 35.1805C31.4146 35.363 31.598 35.6472 31.598 36.0494C31.598 36.8069 32.7698 36.8069 32.7698 36.0494C32.7697 35.2025 32.3242 34.5012 31.5474 34.1256Z" fill="#009961"/>
</svg>
