<svg width="41" height="40" viewBox="0 0 41 40" fill="none" xmlns="http://www.w3.org/2000/svg">
<path d="M40.2147 25.5134C36.1754 23.2016 28.6562 22.017 21.0522 21.9609L21.0521 18.8231C23.4585 19.1907 25.9146 18.7327 28.0372 17.5072C30.5757 16.0414 32.3675 13.6678 33.0825 10.8234C33.1571 10.5265 32.9825 10.224 32.6879 10.1402C30.0309 9.38393 26.7686 9.78741 24.3771 11.1681C22.8309 12.0608 21.7936 13.1838 21.052 14.2936L21.052 11.6225C21.0742 11.5896 21.0965 11.5565 21.1197 11.5219C21.9371 10.3109 23.3048 8.28409 23.4556 6.28936C23.6084 4.26571 22.5734 1.80329 20.8802 0.161751C20.6604 -0.0512857 20.3112 -0.0513666 20.0912 0.161832C18.4562 1.74709 17.3971 4.26296 17.5155 6.28013C17.6219 8.08814 18.6806 9.71178 19.6147 11.1442C19.7188 11.3039 19.8198 11.4597 19.9184 11.6132L19.9184 14.2762C19.176 13.1531 18.1563 12.0536 16.6231 11.1683C14.2316 9.78773 10.9695 9.38441 8.31214 10.1409C8.01764 10.2247 7.84299 10.5273 7.91764 10.8243C8.63287 13.6685 10.4248 16.0421 12.9632 17.5076C14.6098 18.4582 16.4567 18.9473 18.3256 18.9473C18.8561 18.9473 19.3885 18.9074 19.9185 18.8279L19.9186 21.9609C12.3363 22.0167 4.83708 23.1946 0.786801 25.4964C0.609555 25.5971 0.5 25.7853 0.5 25.9891V39.4352C0.5 39.7482 0.753765 40.002 1.0668 40.002H39.9332C40.2462 40.002 40.5 39.7482 40.5 39.4352V26.0054C40.5 25.802 40.3911 25.6144 40.2147 25.5134ZM24.9439 12.1498C26.8883 11.0272 29.5842 10.6263 31.8282 11.0954C31.1067 13.3958 29.5756 15.3099 27.4703 16.5255C25.5805 17.6168 23.395 18.028 21.252 17.7072L26.1038 14.9059C26.375 14.7493 26.4678 14.4026 26.3112 14.1316C26.1547 13.8604 25.8079 13.7677 25.537 13.9242L21.1273 16.4703C21.8346 14.9842 22.8647 13.3503 24.9439 12.1498ZM18.6472 6.21357C18.5562 4.6662 19.298 2.75729 20.4869 1.39122C21.7153 2.78563 22.442 4.65673 22.3251 6.20401C22.2412 7.31494 21.6486 8.53267 21.0518 9.53429L21.0517 6.00871C21.0517 5.69567 20.798 5.44191 20.4849 5.44191C20.1719 5.44191 19.9181 5.69567 19.9181 6.00871L19.9182 9.51308C19.2783 8.46773 18.7137 7.34563 18.6472 6.21357ZM13.53 16.5258C11.4247 15.3103 9.89343 13.3963 9.17173 11.0959C11.4161 10.6264 14.1118 11.0273 16.0562 12.15C18.1027 13.3315 19.104 14.9109 19.8435 16.4702L15.4335 13.9243C15.1624 13.7678 14.8158 13.8608 14.6593 14.1318C14.5027 14.403 14.5957 14.7495 14.8667 14.906L19.725 17.7108C17.5897 18.0252 15.4132 17.6131 13.53 16.5258ZM39.3664 38.8684H1.6336V26.3245C5.39886 24.3257 12.5642 23.0916 20.4844 23.0905C20.4847 23.0905 20.485 23.0906 20.4854 23.0906C20.4858 23.0906 20.4861 23.0905 20.4865 23.0905H20.495H20.5059C28.44 23.0916 35.6106 24.3318 39.3664 26.3395V38.8684H39.3664ZM9.32841 29.6338C9.32841 28.3574 8.29003 27.319 7.01368 27.319C5.73724 27.319 4.69886 28.3574 4.69886 29.6338C4.69886 30.9102 5.73724 31.9486 7.01368 31.9486C8.29003 31.9486 9.32841 30.9102 9.32841 29.6338ZM7.01368 30.815C6.36234 30.815 5.83246 30.2851 5.83246 29.6338C5.83246 28.9825 6.36234 28.4527 7.01368 28.4527C7.66493 28.4527 8.19481 28.9825 8.19481 29.6338C8.19481 30.2851 7.66493 30.815 7.01368 30.815ZM17.6927 27.5012C15.8312 27.5012 14.3167 29.0157 14.3167 30.8772C14.3167 32.7387 15.8312 34.2532 17.6927 34.2532C19.5542 34.2532 21.0687 32.7387 21.0687 30.8772C21.0687 29.0157 19.5542 27.5012 17.6927 27.5012ZM17.6927 33.1197C16.4562 33.1197 15.4503 32.1137 15.4503 30.8773C15.4503 29.6408 16.4563 28.6349 17.6927 28.6349C18.9291 28.6349 19.9351 29.6408 19.9351 30.8773C19.9351 32.1137 18.9292 33.1197 17.6927 33.1197ZM34.9812 37.5671C36.2575 37.5671 37.2959 36.5287 37.2959 35.2523C37.2959 33.976 36.2575 32.9376 34.9812 32.9376C33.7048 32.9376 32.6664 33.976 32.6664 35.2523C32.6664 36.5287 33.7048 37.5671 34.9812 37.5671ZM34.9812 34.0712C35.6324 34.0712 36.1623 34.6011 36.1623 35.2523C36.1623 35.9036 35.6324 36.4335 34.9812 36.4335C34.3299 36.4335 33.8 35.9036 33.8 35.2523C33.8 34.6011 34.3299 34.0712 34.9812 34.0712ZM27.8588 32.0113C29.2243 32.0113 30.3351 30.9004 30.3351 29.535C30.3351 28.1696 29.2243 27.0586 27.8588 27.0586C26.4934 27.0586 25.3826 28.1696 25.3826 29.535C25.3826 30.9004 26.4934 32.0113 27.8588 32.0113ZM27.8588 28.1922C28.5992 28.1922 29.2015 28.7946 29.2015 29.535C29.2015 30.2754 28.5992 30.8777 27.8588 30.8777C27.1184 30.8777 26.5162 30.2754 26.5162 29.535C26.5162 28.7946 27.1184 28.1922 27.8588 28.1922ZM9.81481 33.0896C8.81384 33.0896 7.99943 33.904 7.99943 34.9049C7.99943 35.9058 8.81384 36.7203 9.81481 36.7203C10.8157 36.7203 11.6301 35.9058 11.6301 34.9049C11.6301 33.9039 10.8157 33.0896 9.81481 33.0896ZM9.81481 35.5867C9.43886 35.5867 9.13303 35.2808 9.13303 34.9049C9.13303 34.5289 9.43886 34.2232 9.81481 34.2232C10.1908 34.2232 10.4965 34.5289 10.4965 34.9049C10.4965 35.2808 10.1908 35.5867 9.81481 35.5867ZM28.8165 35.98C28.8165 36.426 28.4528 36.7897 28.0068 36.7897C27.5608 36.7897 27.197 36.426 27.197 35.98C27.197 35.534 27.5608 35.1703 28.0068 35.1703C28.4528 35.1703 28.8165 35.534 28.8165 35.98ZM35.589 30.4044C36.6933 30.4044 37.5916 29.506 37.5916 28.4018C37.5916 27.2976 36.6932 26.3992 35.589 26.3992C34.4848 26.3992 33.5864 27.2976 33.5864 28.4018C33.5864 29.506 34.4847 30.4044 35.589 30.4044ZM35.589 27.5327C36.0682 27.5327 36.458 27.9225 36.458 28.4017C36.458 28.8809 36.0682 29.2707 35.589 29.2707C35.1098 29.2707 34.7201 28.8809 34.7201 28.4017C34.7201 27.9225 35.1098 27.5327 35.589 27.5327ZM21.2257 35.1114C21.2257 34.6654 21.5895 34.3017 22.0354 34.3017C22.4814 34.3017 22.8452 34.6654 22.8452 35.1114C22.8452 35.5574 22.4814 35.9211 22.0354 35.9211C21.5895 35.9211 21.2257 35.5574 21.2257 35.1114ZM5.03319 35.7735C5.03319 36.2194 4.66939 36.5832 4.22348 36.5832C3.77749 36.5832 3.41376 36.2194 3.41376 35.7735C3.41376 35.3275 3.77757 34.9637 4.22348 34.9637C4.66939 34.9637 5.03319 35.3275 5.03319 35.7735ZM14.051 26.1499C14.051 26.5959 13.6873 26.9596 13.2413 26.9596C12.7953 26.9596 12.4316 26.5959 12.4316 26.1499C12.4316 25.7039 12.7953 25.3402 13.2413 25.3402C13.6873 25.3402 14.051 25.7039 14.051 26.1499ZM21.4429 25.6659C21.4429 25.2199 21.8066 24.8562 22.2526 24.8562C22.6986 24.8562 23.0623 25.2199 23.0623 25.6659C23.0623 26.1119 22.6986 26.4757 22.2526 26.4757C21.8066 26.4757 21.4429 26.1119 21.4429 25.6659ZM38.246 5.93511C38.2516 5.93527 38.2574 5.93535 38.263 5.93535C38.2687 5.93535 38.2745 5.93527 38.2801 5.93511C39.2005 5.90725 39.9051 5.51632 40.264 4.83405C40.6636 4.07478 40.5508 3.07567 39.9624 2.16159L38.7396 0.261993C38.6353 0.0999693 38.4558 0.00199363 38.263 0.00199363C38.0702 0.00199363 37.8907 0.0999692 37.7864 0.262074L36.5637 2.16175C35.9753 3.07576 35.8626 4.07486 36.2621 4.83422C36.6211 5.5164 37.3256 5.90733 38.246 5.93511ZM37.5169 2.77519L38.263 1.616L39.0093 2.77519C39.3681 3.33268 39.4644 3.91932 39.2608 4.30628C39.0586 4.69057 38.6103 4.7883 38.263 4.80142C37.9158 4.7883 37.4676 4.69057 37.2654 4.30628C37.0617 3.91932 37.1582 3.33268 37.5169 2.77519ZM2.71976 5.93511C2.72542 5.93527 2.73117 5.93535 2.73684 5.93535C2.74251 5.93535 2.74826 5.93527 2.75392 5.93511C3.67433 5.90725 4.37886 5.51632 4.73781 4.83405C5.1374 4.07478 5.02461 3.07567 4.43619 2.16159L3.21344 0.261993C3.10915 0.0999693 2.92955 0.00199363 2.73684 0.00199363C2.54405 0.00199363 2.36453 0.0999692 2.26024 0.262074L1.03757 2.16175C0.44915 3.07576 0.336356 4.07486 0.735951 4.83422C1.0949 5.5164 1.79943 5.90733 2.71976 5.93511ZM1.99069 2.77519L2.73684 1.616L3.48307 2.77519C3.84186 3.33268 3.93822 3.91932 3.73457 4.30628C3.53239 4.69057 3.08413 4.7883 2.73684 4.80142C2.38955 4.7883 1.94138 4.69057 1.73919 4.30628C1.53555 3.91932 1.6319 3.33268 1.99069 2.77519ZM4.06307 19.8531C4.42202 20.5354 5.12655 20.9263 6.04696 20.9542C6.05263 20.9544 6.05838 20.9544 6.06404 20.9544C6.06971 20.9544 6.07546 20.9544 6.08113 20.9542C7.00145 20.9263 7.70599 20.5354 8.06493 19.8532C8.46453 19.094 8.35173 18.0948 7.76331 17.1806L6.54056 15.281C6.43627 15.119 6.25667 15.021 6.06396 15.021C5.87125 15.021 5.69166 15.119 5.58736 15.281L4.36461 17.1806C3.77635 18.0948 3.66356 19.0939 4.06307 19.8531ZM5.31789 17.7942L6.06404 16.635L6.8102 17.7941C7.16898 18.3517 7.26542 18.9384 7.06178 19.3254C6.85959 19.7096 6.41133 19.8073 6.06404 19.8204C5.71676 19.8073 5.2685 19.7096 5.06631 19.3253C4.86267 18.9383 4.95902 18.3517 5.31789 17.7942ZM32.935 19.8532C33.294 20.5354 33.9985 20.9263 34.9188 20.9542C34.9245 20.9544 34.9303 20.9544 34.9359 20.9544C34.9416 20.9544 34.9473 20.9544 34.953 20.9542C35.8734 20.9263 36.5779 20.5354 36.9369 19.8531C37.3364 19.0939 37.2236 18.0948 36.6352 17.1806L35.4124 15.281C35.3081 15.119 35.1285 15.021 34.9358 15.021C34.7431 15.021 34.5635 15.119 34.4592 15.281L33.2365 17.1807C32.6482 18.0948 32.5355 19.094 32.935 19.8532ZM34.1898 17.7942L34.9359 16.635L35.6821 17.7942C36.0409 18.3517 36.1373 18.9383 35.9337 19.3253C35.7315 19.7096 35.2832 19.8073 34.9359 19.8204C34.5886 19.8073 34.1404 19.7096 33.9382 19.3254C33.7345 18.9384 33.8311 18.3517 34.1898 17.7942Z" fill="#009961"/>
</svg>
