<svg width="38" height="40" viewBox="0 0 38 40" fill="none" xmlns="http://www.w3.org/2000/svg">
<path fill-rule="evenodd" clip-rule="evenodd" d="M28.0516 3.40649C22.9121 -1.20291 15.1029 -1.12262 10.0591 3.59137C5.01534 8.30536 4.40821 16.0914 8.66012 21.5304C10.2997 23.5787 11.3564 26.0314 11.7187 28.6301C10.9929 29.3814 10.9778 30.5678 11.684 31.3374C10.9908 32.0909 10.9908 33.2499 11.684 34.0034C11.1515 34.5873 11.0147 35.4307 11.3353 36.153C11.656 36.8753 12.3735 37.3394 13.1637 37.3359H13.3989C14.2374 38.9263 16.5116 40.002 19.1623 40.002C21.813 40.002 24.0872 38.9262 24.9257 37.3359H25.1609C25.9511 37.3394 26.6686 36.8753 26.9893 36.153C27.31 35.4307 27.1732 34.5872 26.6406 34.0034C27.3338 33.2499 27.3338 32.0909 26.6406 31.3374C27.3392 30.5775 27.3331 29.4073 26.6266 28.6547C26.9127 26.1279 27.9077 23.7336 29.4966 21.7483C31.4445 19.3808 32.5042 16.4073 32.4926 13.3415C32.4902 9.54953 30.8755 5.93732 28.0516 3.40649ZM25.8275 30.0043C25.8275 30.3725 25.5291 30.6708 25.161 30.6708H13.1638C12.7957 30.6708 12.4973 30.3725 12.4973 30.0043C12.4973 29.6362 12.7957 29.3379 13.1638 29.3379H25.161C25.529 29.3379 25.8275 29.6363 25.8275 30.0043ZM25.8275 32.6704C25.8275 33.0386 25.5291 33.3369 25.161 33.3369H13.1638C12.7957 33.3369 12.4973 33.0386 12.4973 32.6704C12.4973 32.3023 12.7957 32.004 13.1638 32.004H25.161C25.529 32.0039 25.8275 32.3023 25.8275 32.6704ZM15.0573 37.336H23.2675C22.1017 38.2553 20.6459 38.7281 19.1624 38.6691C17.6788 38.7281 16.2231 38.2553 15.0573 37.336ZM25.1609 36.003H13.1637C12.7956 36.003 12.4972 35.7046 12.4972 35.3365C12.4972 34.9684 12.7957 34.67 13.1637 34.67H25.1609C25.529 34.67 25.8274 34.9684 25.8274 35.3365C25.8274 35.7046 25.529 36.003 25.1609 36.003ZM28.4635 20.9058C26.8137 22.9596 25.7448 25.4182 25.3682 28.0255C25.3462 28.0233 25.3243 28.0203 25.302 28.0173C25.2568 28.0111 25.2105 28.0048 25.1609 28.0048H13.1637C13.1208 28.0048 13.0806 28.0103 13.0405 28.0159C13.0184 28.0189 12.9963 28.022 12.9737 28.0241C12.5224 25.3482 11.3986 22.8309 9.70785 20.7084C6.4843 16.5709 6.32371 10.8185 9.31146 6.50758C12.2992 2.19662 17.7417 0.327595 22.7476 1.89341C27.7535 3.45922 31.1609 8.0965 31.1595 13.3415C31.1703 16.1002 30.2167 18.7758 28.4635 20.9058ZM18.0839 4.07041C18.3208 4.04408 18.5257 3.89342 18.6214 3.67503C18.7171 3.45672 18.6891 3.20389 18.5478 3.01182C18.4065 2.81976 18.1736 2.71767 17.9366 2.74399C12.9404 3.36463 9.03919 7.36082 8.53875 12.3704C8.52321 12.5466 8.57835 12.7217 8.692 12.8572C8.80564 12.9927 8.9685 13.0775 9.14463 13.0929C9.16439 13.0939 9.18415 13.0939 9.20391 13.0929C9.54899 13.0925 9.83674 12.8289 9.86712 12.4851C10.3057 8.10596 13.7164 4.61309 18.0839 4.07041ZM19.8782 7.93484C21.5224 6.28991 24.9663 6.02067 25.1123 6.00997C25.3057 5.99591 25.4955 6.06675 25.6325 6.20391C25.7695 6.34107 25.8398 6.53118 25.8254 6.72449C25.8148 6.87047 25.5455 10.3143 23.9005 11.9586C22.7034 13.1557 20.8786 13.3416 19.8614 13.3416H19.8288V14.2361C19.8448 14.5667 19.8395 14.8513 19.8288 15.0512V16.9481C21.6777 17.7758 22.8654 19.6153 22.8588 21.6411C22.8588 23.6825 21.2038 25.3375 19.1623 25.3375C17.1208 25.3375 15.4658 23.6825 15.4658 21.6411C15.4587 19.6148 16.6464 17.7748 18.4958 16.9468V16.0063H18.4725C17.454 16.0063 15.6278 15.8237 14.4281 14.624C12.7805 12.9791 12.5106 9.53517 12.4999 9.38919C12.4852 9.19595 12.5558 9.006 12.6932 8.86931C12.8303 8.73301 13.0195 8.66256 13.2124 8.67599C13.359 8.6867 16.8075 8.95531 18.4551 10.6002C18.4865 10.6315 18.5147 10.6646 18.5429 10.6976L18.5429 10.6976L18.5429 10.6977L18.543 10.6977L18.543 10.6978C18.558 10.7153 18.573 10.7329 18.5885 10.7502C18.71 9.69904 19.1615 8.71341 19.8782 7.93484ZM13.9309 10.1084C14.1148 11.2162 14.5428 12.8578 15.3692 13.6823C16.2465 14.4001 17.3651 14.7552 18.4958 14.6747V14.2961C18.5059 13.2916 18.1573 12.3165 17.5127 11.546C16.6829 10.7176 15.038 10.291 13.9309 10.1084ZM19.1624 24.0058C20.4676 24.0058 21.5258 22.9477 21.5258 21.6424C21.5366 20.0927 20.5996 18.6937 19.1624 18.1139C17.7254 18.6938 16.7883 20.0927 16.799 21.6424C16.799 22.9477 17.8571 24.0058 19.1624 24.0058ZM19.8288 12.0087C20.596 12.0087 22.087 11.888 22.9614 11.0169C23.7833 10.1924 24.2105 8.55009 24.3931 7.4444C23.286 7.62772 21.645 8.05497 20.8199 8.88009C19.9488 9.75121 19.8248 11.2135 19.8288 12.0087ZM0.5 13.3417C0.5 13.7098 0.798447 14.0082 1.16649 14.0082H3.16603C3.53414 14.0082 3.83251 13.7098 3.83251 13.3417C3.83251 12.9736 3.53407 12.6752 3.16603 12.6752H1.16649C0.798447 12.6752 0.5 12.9736 0.5 13.3417ZM36.4917 12.6752C36.8597 12.6752 37.1582 12.9736 37.1582 13.3417C37.1582 13.7098 36.8598 14.0082 36.4917 14.0082H34.4922C34.1241 14.0082 33.8257 13.7097 33.8257 13.3417C33.8257 12.9736 34.124 12.6752 34.4922 12.6752H36.4917ZM4.93101 20.5962L3.19805 21.596C2.99013 21.7142 2.86149 21.9347 2.86094 22.1739C2.8604 22.413 2.9881 22.6342 3.19548 22.7533C3.40285 22.8724 3.65818 22.8713 3.86454 22.7503L5.5975 21.7505C5.80542 21.6323 5.93406 21.4118 5.93461 21.1726C5.93516 20.9335 5.80745 20.7123 5.60008 20.5932C5.39262 20.4741 5.13729 20.4752 4.93101 20.5962ZM33.7916 3.93336C34.1104 3.74926 34.5181 3.85853 34.7021 4.17729C34.8861 4.49604 34.7769 4.90368 34.4581 5.0877L32.7251 6.08747C32.5188 6.20846 32.2634 6.20955 32.0561 6.09044C31.8487 5.97132 31.721 5.7502 31.7215 5.51104C31.7221 5.27188 31.8507 5.0513 32.0587 4.93313L33.7916 3.93336ZM31.8161 20.8401C31.7278 20.9933 31.704 21.1753 31.7498 21.346C31.7957 21.5167 31.9075 21.6623 32.0608 21.7506L33.7937 22.7504C34.1122 22.9314 34.5172 22.8215 34.7004 22.5043C34.8836 22.187 34.7763 21.7813 34.4603 21.596L32.7273 20.5963C32.5742 20.5077 32.3921 20.4836 32.2212 20.5293C32.0502 20.575 31.9045 20.6869 31.8161 20.8401ZM3.86454 3.93323L5.5975 4.93299C5.80542 5.05125 5.93406 5.27182 5.93461 5.51091C5.93516 5.75007 5.80745 5.97119 5.60008 6.09031C5.3927 6.20942 5.13737 6.20833 4.93101 6.08734L3.19805 5.08757C2.99013 4.96939 2.86149 4.74882 2.86094 4.50966C2.8604 4.27049 2.9881 4.04937 3.19548 3.93026C3.40285 3.81114 3.65818 3.81224 3.86454 3.93323Z" fill="#009961"/>
</svg>
