<svg width="41" height="40" viewBox="0 0 41 40" fill="none" xmlns="http://www.w3.org/2000/svg">
<path fill-rule="evenodd" clip-rule="evenodd" d="M15.3788 16.0912C18.0138 13.1256 21.8524 11.2525 26.1224 11.2525C34.0491 11.2525 40.4971 17.7005 40.4971 25.6272C40.4971 33.554 34.0491 40.002 26.1224 40.002C23.6649 40.002 21.3506 39.3813 19.3256 38.2901C19.3183 38.3031 19.3111 38.316 19.3039 38.329L19.3037 38.3294L19.3036 38.3295C19.282 38.3684 19.2602 38.4076 19.235 38.4464C19.0981 38.6989 18.3156 40.002 16.8225 40.002H2.44784C2.39659 40.002 2.34596 39.9957 2.29659 39.9832C1.8641 39.8751 1.03724 39.462 0.679123 38.5957C0.322881 37.7358 0.498502 36.6783 1.20161 35.4502C1.22599 34.8683 1.38973 33.1702 2.46034 32.5077C2.8247 32.2821 3.41907 32.1015 4.2578 32.4171C4.65904 32.1665 5.38903 31.7834 6.19464 31.6909V29.0572C5.60215 29.0266 5.15716 28.7347 4.88529 28.3953C3.75469 28.3497 3.14782 28.0872 2.84033 27.8791C2.17284 27.8191 1.77973 27.5047 1.56098 27.236C1.07537 26.6379 1.07287 25.8204 1.11661 25.3773C0.701623 24.8066 0.521626 24.2223 0.581 23.636C0.622874 23.2179 0.780371 22.8798 0.945993 22.6311C0.795996 22.3923 0.704123 22.1229 0.674748 21.8305C0.5785 20.8823 1.15786 19.9092 1.49973 19.4274C1.07537 18.0849 1.55973 17.0518 2.13034 16.4268C2.07659 16.3306 2.03597 16.2274 2.00785 16.1174C1.79348 15.2725 2.44409 14.2381 2.81845 13.7331C2.64221 12.675 3.41032 11.5188 3.74906 11.07C3.82281 9.97131 4.4253 9.31695 4.88966 8.97133C4.77779 8.52009 4.85904 8.15573 4.96904 7.90386C5.25591 7.24762 5.93089 6.88263 6.38526 6.7045C6.62588 5.49515 7.79023 5.02891 8.63459 5.00704C8.63459 4.97793 8.63245 4.9492 8.63033 4.9205L8.63033 4.92048V4.92047V4.92046C8.6277 4.8851 8.62508 4.84979 8.62646 4.81392C8.72271 2.20397 10.9264 0.0458893 13.5389 0.00339013C14.9138 -0.0291092 16.1657 0.49088 17.1288 1.43774C18.0919 2.38522 18.6225 3.65144 18.6225 5.00266C18.6225 6.10014 18.2731 7.142 17.6138 8.0151C16.6525 9.28695 16.1226 10.9457 16.1226 12.6856V13.3819C16.1226 14.0237 15.7451 14.5743 15.2032 14.8368C15.4026 15.3106 15.4638 15.7312 15.3788 16.0912ZM12.2489 11.2525C12.2845 11.4607 12.3095 11.6694 12.3295 11.8775H14.9076C14.9251 11.6675 14.9495 11.4594 14.9801 11.2525H12.2489ZM14.8726 13.1275H12.3726V13.3819C12.3726 13.5862 12.5389 13.7525 12.7433 13.7525H14.502C14.7063 13.7525 14.8726 13.5862 14.8726 13.3819V13.1275ZM13.6232 1.25274C13.602 1.25274 13.5814 1.25274 13.5595 1.25336C11.6008 1.28524 9.94769 2.90333 9.87519 4.86079C9.84519 5.6714 10.0696 6.45138 10.5239 7.11512C11.1589 8.04385 11.632 9.01696 11.9426 10.0026H15.2601C15.5544 8.99821 16.0088 8.06448 16.6163 7.26074C17.1113 6.60638 17.3725 5.82577 17.3725 5.00266C17.3725 3.98956 16.9744 3.03958 16.2519 2.32897C15.5451 1.63336 14.6138 1.25274 13.6232 1.25274ZM5.23528 27.1528C5.48715 27.1528 5.71527 27.3041 5.81214 27.5366C5.88964 27.6991 6.12151 27.9578 6.73588 27.7141C6.9865 27.6166 7.27336 27.6878 7.44461 27.8947C7.50961 27.9678 7.71461 28.1291 7.8646 28.1291C7.9946 28.1278 8.12835 28.0003 8.21897 27.8928C8.33772 27.7516 8.50084 27.6685 8.69834 27.671C8.88271 27.6716 9.05833 27.7528 9.17708 27.8947C9.26645 28.0016 9.4002 28.1291 9.52832 28.1291C9.69456 28.1291 9.90019 27.9466 9.94269 27.8947C10.1164 27.6878 10.4008 27.6166 10.652 27.7141C11.2652 27.9553 11.4989 27.6985 11.5827 27.5235C11.6383 27.4066 11.7314 27.3166 11.842 27.2535C11.782 26.7191 11.7476 26.1772 11.7476 25.6272C11.7476 24.4991 11.8826 23.4029 12.1289 22.3486C11.932 22.3979 11.7264 22.4311 11.5195 22.4311C11.3664 22.4311 11.2139 22.4142 11.0639 22.3748C10.8364 22.3142 10.6327 22.2073 10.4608 22.0592C9.98706 22.2911 9.26582 22.5473 8.61146 22.3742C8.1671 22.2567 7.81898 21.9636 7.60523 21.5273C7.45336 21.2173 7.58086 20.8423 7.89085 20.6911C8.20147 20.5367 8.57646 20.6667 8.72709 20.9767C8.79396 21.1136 8.86521 21.1486 8.93083 21.1661C9.26832 21.2573 9.92894 20.963 10.2677 20.7348C10.4171 20.6342 10.6052 20.603 10.7783 20.6486C10.9533 20.6955 11.0995 20.8142 11.1789 20.9767C11.2458 21.1136 11.3177 21.1492 11.3839 21.1667C11.7058 21.2505 12.2589 21.0061 12.5764 20.823C13.0214 19.5724 13.6351 18.4024 14.3895 17.338C14.2022 17.1166 14.0154 16.9915 13.9977 16.9796L13.9964 16.9787C13.7957 16.8543 13.6814 16.6256 13.7026 16.3906C13.7239 16.1556 13.8739 15.9512 14.0939 15.8643C14.1451 15.8443 14.1676 15.8256 14.1713 15.8206C14.1932 15.7799 14.1957 15.52 13.9039 15.0025H12.7433C11.8495 15.0025 11.1227 14.2756 11.1227 13.3819V12.6881C11.1227 11.065 10.5589 9.38195 9.49144 7.82011C9.16333 7.34012 8.93333 6.81263 8.79021 6.26014C8.73396 6.25451 8.69396 6.25264 8.69334 6.25264C8.44084 6.25639 7.59086 6.33264 7.59086 7.17137C7.59086 7.46074 7.39211 7.71261 7.11087 7.77948C6.84712 7.84511 6.25276 8.08448 6.11339 8.40572C6.09214 8.45447 6.02776 8.60384 6.20964 8.92758C6.29838 9.08508 6.31401 9.27258 6.25401 9.4432C6.19401 9.61382 6.06276 9.74944 5.89464 9.81569C5.80839 9.85194 4.99091 10.2269 4.99091 11.2969C4.99091 11.4432 4.93904 11.5857 4.84591 11.6982C4.4228 12.2056 3.88718 13.1712 4.07968 13.6312C4.16968 13.8462 4.13155 14.0944 3.98218 14.2731C3.46532 14.8931 3.12657 15.6543 3.22157 15.8206C3.22161 15.8206 3.22171 15.8206 3.22187 15.8208C3.22201 15.8209 3.2222 15.8211 3.22245 15.8213L3.22246 15.8213C3.22656 15.8252 3.24565 15.8434 3.30095 15.8649C3.52344 15.9524 3.67594 16.1587 3.69531 16.3962C3.71469 16.6331 3.59719 16.8618 3.39219 16.9837C3.26782 17.0605 2.15597 17.8037 2.78033 19.2924C2.87095 19.5067 2.83283 19.7555 2.68346 19.9349C2.46471 20.1974 1.8541 21.0867 1.91847 21.7061C1.93722 21.8861 2.01222 22.0198 2.16097 22.1379C2.31034 22.2561 2.39784 22.4367 2.39784 22.6273C2.39784 22.8186 2.31034 22.9986 2.16097 23.1167C2.16097 23.1167 2.16095 23.1167 2.16088 23.1168L2.16074 23.1169L2.15975 23.1178C2.13891 23.1367 1.85654 23.3929 1.82348 23.7729C1.79598 24.0854 1.94035 24.431 2.25097 24.8004C2.37471 24.9473 2.42409 25.1429 2.38471 25.331C2.34596 25.5247 2.28847 26.1516 2.53284 26.4497C2.57096 26.4972 2.68908 26.6404 3.07282 26.6404C3.25657 26.6404 3.43157 26.721 3.55031 26.8616C3.5493 26.8604 3.5508 26.8614 3.55511 26.8641C3.60399 26.8948 4.0144 27.1528 5.23528 27.1528ZM7.86023 29.379C7.71086 29.3784 7.57461 29.3509 7.44461 29.314V31.8371C7.69773 31.9359 7.93273 32.074 8.14147 32.2584C8.43584 32.0434 8.84521 31.794 9.31957 31.6171V29.3622C9.13333 29.3359 8.91958 29.2703 8.69646 29.1272C8.38397 29.3265 8.0871 29.379 7.86273 29.379H7.86023ZM10.577 28.9984C10.5745 29.0003 10.572 29.0016 10.5695 29.0034V31.3978C10.5848 31.398 10.5997 31.3977 10.6146 31.3973H10.6147H10.6147C10.637 31.3968 10.6592 31.3963 10.682 31.3978C11.4408 31.4521 12.1139 31.8002 12.6876 32.4359C12.877 32.399 13.127 32.3571 13.4076 32.3221C12.8214 31.2128 12.377 30.0184 12.0964 28.7622C11.722 29.0109 11.2114 29.1491 10.577 28.9984ZM18.14 37.8439C18.1513 37.8226 18.1644 37.7989 18.1775 37.7801C18.2031 37.7422 18.2199 37.7065 18.2372 37.6697C18.2392 37.6653 18.2413 37.6609 18.2434 37.6564C18.2452 37.6527 18.247 37.6489 18.2488 37.6451C16.6044 36.5639 15.1938 35.1558 14.1114 33.5121C13.3265 33.5566 12.6416 33.7225 12.6013 33.7323L12.5995 33.7327C12.3551 33.7952 12.0976 33.7027 11.947 33.5015C11.5427 32.9627 11.1014 32.6827 10.597 32.6452C9.55019 32.5677 8.52334 33.559 8.51271 33.5696C8.37959 33.7008 8.20022 33.7633 8.00897 33.7477C7.82398 33.729 7.65586 33.6283 7.55211 33.4733C7.34524 33.1633 7.10087 32.9933 6.78212 32.9384C6.01339 32.8046 5.01529 33.3908 4.69654 33.6283C4.50655 33.769 4.25343 33.7915 4.0428 33.6865C3.63656 33.4821 3.32532 33.4433 3.11845 33.5708C2.61596 33.8802 2.44971 35.0908 2.44784 35.6283C2.44721 35.7408 2.41659 35.8527 2.35846 35.9489C1.8116 36.8608 1.62848 37.607 1.8291 38.1076C1.99222 38.5126 2.39284 38.6951 2.54534 38.752H16.8225C17.6613 38.752 18.1356 37.8533 18.14 37.8439ZM12.9976 25.6272C12.9976 32.864 18.8856 38.752 26.1224 38.752C33.3591 38.752 39.2471 32.864 39.2471 25.6272C39.2471 18.3905 33.3591 12.5025 26.1224 12.5025C18.8856 12.5025 12.9976 18.3905 12.9976 25.6272ZM26.0623 21.948L32.1991 15.8106C32.4335 15.5762 32.8484 15.5762 33.0816 15.8106L36.5627 19.2918C36.8071 19.5361 36.8071 19.9311 36.5627 20.1755L29.5516 27.1922L34.1772 31.9128C34.6015 32.3365 34.8378 32.9065 34.8378 33.5127C34.8378 34.1177 34.6015 34.6883 34.1734 35.1164C33.7453 35.5446 33.1759 35.7802 32.5697 35.7802C31.9647 35.7802 31.3954 35.5452 30.9666 35.1164L26.343 30.3984L20.8787 35.8627C20.7568 35.9845 20.5968 36.0458 20.4368 36.0458C20.2768 36.0458 20.1168 35.9845 19.995 35.8627L16.5113 32.379C16.2669 32.1346 16.2669 31.7396 16.5113 31.4953L22.0199 25.9866L20.6599 24.5985C20.4187 24.3523 20.4218 23.956 20.6687 23.7148C20.9149 23.4729 21.3106 23.4773 21.5524 23.7235L31.8547 34.2377C32.2472 34.6302 32.8928 34.6302 33.2903 34.2333C33.4828 34.0415 33.5891 33.7852 33.5891 33.5133C33.5891 33.2415 33.4828 32.9859 33.2903 32.7934L33.2859 32.789L28.2385 27.6378C28.2378 27.6371 28.2371 27.6366 28.2362 27.6361C28.2356 27.6357 28.2349 27.6354 28.2342 27.635C28.2326 27.6342 28.231 27.6335 28.2298 27.6322C28.2287 27.6308 28.228 27.6294 28.2272 27.6279C28.2267 27.6268 28.2262 27.6257 28.2255 27.6247C28.225 27.6238 28.2243 27.623 28.2235 27.6222L20.5068 19.7467L19.0669 21.1867L19.7956 21.9305C20.0368 22.1767 20.0337 22.5729 19.7868 22.8142C19.54 23.0554 19.1444 23.0517 18.9031 22.8054L17.7413 21.6198C17.675 21.5517 17.625 21.4698 17.595 21.3798L16.4338 17.8943C16.3588 17.6699 16.4175 17.4218 16.5844 17.2549C16.7513 17.0881 16.9988 17.0274 17.2238 17.1043L20.7093 18.2655C20.8031 18.2968 20.8887 18.3499 20.9574 18.4205L28.6779 26.2991L28.8498 26.1272L28.1273 25.4048C27.8829 25.1604 27.8829 24.7654 28.1273 24.521C28.3717 24.2767 28.7667 24.2767 29.011 24.521L29.7329 25.2435L31.1722 23.8029L30.451 23.0817C30.2066 22.8373 30.2066 22.4423 30.451 22.198C30.6954 21.9536 31.0904 21.9536 31.3347 22.198L32.056 22.9186L33.4953 21.478L32.7753 20.7574C32.531 20.513 32.531 20.118 32.7753 19.8736C33.0197 19.6293 33.4147 19.6293 33.6591 19.8736L34.379 20.5936L35.2384 19.7336L32.641 17.1362L26.9461 22.8317C26.7017 23.0761 26.3067 23.0761 26.0623 22.8317C25.818 22.5873 25.818 22.1923 26.0623 21.948ZM24.363 29.1691L25.0842 29.8903L25.4686 29.5059L22.8949 26.8797L17.8375 31.9371L20.4374 34.5371L21.8768 33.0977L21.1562 32.3771C20.9118 32.1327 20.9118 31.7378 21.1562 31.4934C21.4006 31.249 21.7955 31.249 22.0399 31.4934L22.7605 32.214L24.2005 30.774L23.4793 30.0528C23.2349 29.8084 23.2349 29.4134 23.4793 29.1691C23.7236 28.9247 24.1186 28.9247 24.363 29.1691ZM18.4606 20.0249L19.3543 19.1311L18.0137 18.6843L18.4606 20.0249ZM8.7808 13.8082C9.54016 13.6857 9.89703 12.9982 9.93515 12.9207C10.087 12.6107 9.95953 12.2357 9.64954 12.0844C9.34017 11.9313 8.96455 12.0607 8.8133 12.3701C8.80393 12.3882 8.69331 12.5563 8.58143 12.5738C8.48643 12.5882 8.27144 12.5038 7.98144 12.2076C7.86395 12.0882 7.70395 12.0207 7.53583 12.0207H7.53458C7.36771 12.0207 7.20771 12.0876 7.08959 12.2069C6.76584 12.5338 6.29773 12.8419 6.14273 12.8326C5.90086 12.5857 5.50462 12.5819 5.259 12.8238C5.01213 13.0657 5.00901 13.4613 5.25025 13.7075C5.48275 13.9444 5.78399 14.07 6.12273 14.07C6.6496 14.07 7.17771 13.7513 7.5402 13.4713C7.95395 13.7619 8.36769 13.875 8.7808 13.8082ZM23.6224 0.62778C23.6224 3.37522 25.3061 3.49772 25.5036 3.50272C25.8461 3.50522 26.1223 3.78459 26.1223 4.12771C26.1223 4.46895 25.8473 4.74707 25.5067 4.75207H25.5055H25.5042H25.5036C25.3061 4.75707 23.6224 4.88019 23.6224 7.62764C23.6224 7.97326 23.343 8.25263 22.9974 8.25263C22.6518 8.25263 22.3724 7.97326 22.3724 7.62764C22.3724 4.88019 20.6887 4.75707 20.4912 4.7527C20.1487 4.74957 19.8725 4.47083 19.8725 4.12771C19.8725 3.78584 20.1468 3.50772 20.4875 3.50272H20.4881H20.4893H20.4912H20.4937H20.4956H20.4975C20.6831 3.49835 22.3724 3.37897 22.3724 0.62778C22.3724 0.282162 22.6518 0.00279234 22.9974 0.00279234C23.343 0.00279234 23.6224 0.282162 23.6224 0.62778ZM22.2012 4.12771C22.4855 4.3402 22.7637 4.62582 22.9974 5.00832C23.2312 4.62582 23.5093 4.3402 23.7936 4.12771C23.5093 3.91459 23.2312 3.62959 22.9974 3.2471C22.7637 3.62959 22.4855 3.91459 22.2012 4.12771Z" fill="#009961"/>
</svg>
