<svg width="42" height="40" viewBox="0 0 42 40" fill="none" xmlns="http://www.w3.org/2000/svg">
<path d="M39.3105 11.725H33.1036C32.2339 11.725 31.4491 12.2768 31.1498 13.103L27.3408 23.9058L26.4132 24.243L26.8546 18.5078C27.6774 18.234 28.276 17.4657 28.276 16.5526C28.276 15.8947 27.9615 15.3147 27.4815 14.9354L28.3436 13.4423C28.5339 13.1119 28.4208 12.6906 28.0911 12.5002L26.2994 11.4657L29.4691 5.97537C29.5912 5.99813 29.7125 6.02365 29.8367 6.02365C30.0167 6.02365 30.1974 6.0002 30.3753 5.95192C30.9091 5.80916 31.3553 5.4671 31.6318 4.98847L32.3215 3.79399C32.5119 3.46364 32.3987 3.04226 32.0691 2.85192L27.2911 0.0932884C27.1325 0.00156406 26.9436 -0.0225739 26.7677 0.0243228C26.5911 0.0712195 26.4401 0.187082 26.3491 0.345703L25.6594 1.54019C25.3829 2.01812 25.3098 2.57605 25.4525 3.10985C25.5953 3.64364 25.938 4.08985 26.416 4.36571L28.2077 5.4002L23.3801 13.7616C23.2884 13.9209 23.1394 14.0354 22.9615 14.0837C22.7835 14.1299 22.598 14.1064 22.438 14.014C22.1084 13.8244 21.9953 13.4009 22.1856 13.0719L26.1139 6.26848C26.3043 5.93813 26.1911 5.51675 25.8615 5.32641C25.5305 5.13606 25.1098 5.24847 24.9194 5.57882L22.7153 9.39607L20.9235 8.36158C20.7656 8.27124 20.5773 8.2471 20.4001 8.29262C20.2235 8.33952 20.0725 8.45538 19.9815 8.614L18.9346 10.4271C18.838 10.3781 18.7325 10.3457 18.6208 10.3457H15.1725V8.27676H15.8622C17.7635 8.27676 19.3104 6.72986 19.3104 4.82847C19.3104 4.44709 19.0015 4.13882 18.6208 4.13882H16.5518C15.5449 4.13882 14.6718 4.6864 14.1897 5.49399C13.7084 5.08503 13.0939 4.82847 12.4139 4.82847H10.3449C9.96421 4.82847 9.65524 5.13675 9.65524 5.51813C9.65524 7.41951 11.2021 8.96641 13.1035 8.96641H13.7932V10.3457H11.7697C11.4759 9.89814 11.0856 9.52228 10.6152 9.25055C9.81662 8.79055 8.88834 8.66641 7.99868 8.90641C7.10903 9.14504 6.36558 9.71538 5.90489 10.5126L5.77316 10.7409L4.7504 9.19193L4.27454 7.41607C4.19867 7.13262 3.95109 6.92779 3.65798 6.9071C2.01246 6.78503 0.506941 7.86227 0.0890092 9.46297L0.0228022 9.71676C-0.0565084 10.0168 0.0759058 10.3326 0.344872 10.4885L1.92695 11.4016L3.13109 14.4837H2.75867C1.61798 14.4837 0.6897 15.4119 0.6897 16.5526C0.6897 17.6933 1.61798 18.6216 2.75867 18.6216H2.99384L3.37936 19.5209C5.29178 23.983 9.00351 27.3789 13.5394 28.9244L10.9849 29.8534C9.80972 28.432 8.05937 27.5872 6.20696 27.5872C5.1035 27.5872 4.01454 27.8851 3.05729 28.4478C2.72902 28.6409 2.61936 29.0644 2.81315 29.392C3.00626 29.7216 3.42833 29.8313 3.75729 29.6368C4.50212 29.1982 5.34902 28.9665 6.20696 28.9665C7.47868 28.9665 8.68834 29.4809 9.5849 30.3616L8.08282 30.9078C7.54213 30.5554 6.89937 30.3458 6.20696 30.3458C4.30557 30.3458 2.75867 31.8927 2.75867 33.7941C2.75867 35.6954 4.30557 37.2423 6.20696 37.2423C7.75455 37.2423 9.05248 36.2106 9.48696 34.8037L11.0118 34.2492C10.7814 36.6982 8.71524 38.6217 6.20696 38.6217C3.54488 38.6217 1.37936 36.4554 1.37936 33.7941C1.37936 32.9368 1.61108 32.0892 2.0497 31.3437C2.24281 31.0154 2.13315 30.5927 1.80488 30.3996C1.47729 30.2065 1.05384 30.3154 0.860735 30.6444C0.297975 31.6016 4.35166e-05 32.6906 4.35166e-05 33.7941C4.35166e-05 37.2168 2.78488 40.001 6.20696 40.001C9.62903 40.001 12.4139 37.2168 12.4139 33.7941C12.4139 33.7754 12.4125 33.7582 12.4118 33.7396L18.2049 31.6327L23.8601 39.172C24.2477 39.6913 24.867 40.001 25.5174 40.001C25.6656 40.001 25.8146 39.983 25.9836 39.9492C26.7822 39.7637 27.398 39.1237 27.5539 38.3141L28.2643 34.5065C28.3346 34.132 28.087 33.772 27.7132 33.7016C27.3374 33.6354 26.9787 33.8796 26.9084 34.2534L26.1987 38.0568C26.1463 38.3286 25.9401 38.543 25.6918 38.601C25.416 38.6582 25.1291 38.5658 24.9656 38.3465L19.5594 31.1403L20.916 30.6472L24.1877 35.0092C24.3194 35.1858 24.5249 35.2851 24.7394 35.2851C24.7911 35.2851 24.8436 35.2789 24.896 35.2672C25.1622 35.2051 25.367 34.992 25.4174 34.723L26.567 28.5913L28.076 28.0423L27.4187 31.5423C27.3484 31.9168 27.5946 32.2768 27.9691 32.3472C28.0118 32.3554 28.0553 32.3596 28.0974 32.3596C28.4229 32.3596 28.7125 32.1285 28.7746 31.7975L29.5829 27.4947L29.6636 27.4651C30.2505 27.2589 30.7084 26.8023 30.9194 26.2099L32.3539 22.1478C32.4808 21.7885 32.2925 21.3947 31.9332 21.2678C31.5725 21.1423 31.1801 21.3299 31.0532 21.6885L29.6194 25.7485C29.5491 25.9444 29.3987 26.0961 29.1987 26.1665L9.6049 33.2934C9.53524 32.8216 9.37455 32.3823 9.13386 31.9927L28.1187 25.0906C28.3125 25.0202 28.4649 24.8665 28.5332 24.672L32.4484 13.5671C32.5505 13.2864 32.8077 13.1044 33.1036 13.1044H39.3105C39.6905 13.1044 40.0001 13.4133 40.0001 13.794C40.0001 14.1747 39.6905 14.4837 39.3105 14.4837H34.0829C33.7905 14.4837 33.5298 14.6685 33.4325 14.9437L31.9705 19.0816C31.8436 19.4409 32.0318 19.8347 32.3912 19.9609C32.7498 20.0892 33.1443 19.9002 33.2712 19.5409L34.5705 15.863H39.3105C40.4512 15.863 41.3795 14.9347 41.3795 13.794C41.3795 12.6533 40.4512 11.725 39.3105 11.725ZM16.5518 5.51813H17.8132C17.5284 6.32089 16.7615 6.89744 15.8622 6.89744H15.1725C15.1725 6.13675 15.7911 5.51813 16.5518 5.51813ZM13.1035 7.5871C12.2042 7.5871 11.4373 7.01055 11.1525 6.20779H12.4139C13.1746 6.20779 13.7932 6.82641 13.7932 7.5871H13.1035ZM26.7849 2.7533C26.7374 2.57536 26.7615 2.38985 26.8539 2.22985L27.1987 1.6326L30.7822 3.70157L30.4374 4.29882C30.3449 4.45813 30.196 4.57192 30.0187 4.6202C29.8415 4.6664 29.6553 4.64365 29.496 4.55054L27.1063 3.17123C26.9463 3.0795 26.8325 2.93123 26.7849 2.7533ZM25.6098 12.6602L26.8043 13.3499L26.1498 14.4837H24.5532C24.5601 14.4726 24.5691 14.4637 24.576 14.4519L25.6098 12.6602ZM20.8318 9.90159L22.0256 10.5912L20.9911 12.383C20.6015 13.0581 20.6456 13.8588 21.0215 14.4837H18.7449L18.9718 13.123L20.8318 9.90159ZM17.347 14.4837H11.6187L11.1587 11.725H17.8063L17.347 14.4837ZM6.75454 11.8002L10.0946 13.7285L10.2208 14.4837H5.20557L6.75454 11.8002ZM9.92559 10.445C9.94076 10.454 9.95455 10.4657 9.96903 10.4747C9.91662 10.5099 9.86007 10.5402 9.818 10.5899C9.68696 10.745 9.6311 10.9492 9.66421 11.1492L9.80007 11.9664L7.54627 10.665C8.19524 10.1119 9.14696 9.99538 9.92559 10.445ZM4.20902 13.4506L3.29936 11.1223L3.66419 10.7988L3.9766 10.5223L5.00281 12.0768L4.20902 13.4506ZM3.08419 8.30296L3.3366 9.24504L2.39591 10.0795L1.50488 9.56504C1.77384 8.89331 2.37867 8.41607 3.08419 8.30296ZM4.64695 18.9782L4.49385 18.6216H11.0346C11.4152 18.6216 11.7242 18.3133 11.7242 17.932C11.7242 17.5506 11.4152 17.2423 11.0346 17.2423H2.75867C2.37867 17.2423 2.06901 16.9333 2.06901 16.5526C2.06901 16.1719 2.37867 15.863 2.75867 15.863H26.207C26.587 15.863 26.8967 16.1719 26.8967 16.5526C26.8967 16.9333 26.587 17.2423 26.207 17.2423H13.7932C13.4125 17.2423 13.1035 17.5506 13.1035 17.932C13.1035 18.3133 13.4125 18.6216 13.7932 18.6216H25.4622L24.9898 24.7609L15.7753 28.1113C10.8021 27.0513 6.64972 23.6513 4.64695 18.9782ZM6.20696 35.863C5.06626 35.863 4.13798 34.9348 4.13798 33.7941C4.13798 32.6534 5.06626 31.7251 6.20696 31.7251C7.34765 31.7251 8.27593 32.6534 8.27593 33.7941C8.27593 34.9348 7.34765 35.863 6.20696 35.863ZM24.3505 32.9272L22.2704 30.1541L25.0608 29.1389L24.3505 32.9272Z" fill="#009961"/>
</svg>
