<svg width="6" height="62" viewBox="0 0 6 62" fill="none" xmlns="http://www.w3.org/2000/svg">
<path id="Vector1" d="M3 61.501L5.88675 56.501H0.113249L3 61.501ZM2.5 0.000976562V1.02598H3.5V0.000976562H2.5ZM2.5 3.07598V5.12598H3.5V3.07598H2.5ZM2.5 7.17598V9.22598H3.5V7.17598H2.5ZM2.5 11.276V13.326H3.5V11.276H2.5ZM2.5 15.376V17.426H3.5V15.376H2.5ZM2.5 19.476V21.526H3.5V19.476H2.5ZM2.5 23.576V25.626H3.5V23.576H2.5ZM2.5 27.676V29.726H3.5V27.676H2.5ZM2.5 31.776V33.826H3.5V31.776H2.5ZM2.5 35.876V37.926H3.5V35.876H2.5ZM2.5 39.976V42.026H3.5V39.976H2.5ZM2.5 44.076V46.126H3.5V44.076H2.5ZM2.5 48.176V50.226H3.5V48.176H2.5ZM2.5 52.276V54.326H3.5V52.276H2.5ZM2.5 56.376V58.426H3.5V56.376H2.5Z" fill="#09331B"/>
</svg>
